<svg width="200" height="200" viewBox="0 0 200 200" fill="none" xmlns="http://www.w3.org/2000/svg">
<path d="M79.26 55.5042C87.52 51.324 104.465 41.9883 106.164 38.0868C108.288 33.2099 99.084 28.333 92.004 29.7264C86.34 30.8411 84.452 22.2949 84.216 17.8825C82.092 7.432 62.976 11.6122 70.056 24.8495C73.36 27.1718 79.1184 32.6525 75.72 35.9967C71.472 40.1768 66.516 49.2339 73.596 56.8976C68.876 60.3811 60.7104 68.3235 65.808 72.225C70.9056 76.1265 93.892 65.4902 104.748 59.6844C110.884 56.2009 123.722 48.2585 125.988 44.357C128.254 40.4555 122.448 38.5512 117.492 38.0868C116.312 38.0868 111.403 38.3654 109.704 39.4801C107.58 40.8735 98.376 51.324 79.26 55.5042Z" fill="#345146"/>
<path d="M128.112 47.1438C120.56 55.272 97.5265 72.643 65.808 77.1019L69.348 84.0689C71.5657 84.1393 74.2041 84.0763 77.136 83.8314C78.4933 83.7181 79.9135 83.5657 81.384 83.3696C94.8846 81.5689 112.624 76.0767 124.834 63.1679C125.225 62.7553 125.609 62.3351 125.988 61.9073C126.47 61.3628 126.942 60.8058 127.404 60.2362C128.943 58.3386 130.367 56.2999 131.652 54.1108L128.112 47.1438Z" fill="#345146"/>
<path d="M127.404 60.2362C126.942 60.8058 126.47 61.3628 125.988 61.9073C125.609 62.3351 125.225 62.7553 124.834 63.1679C127.876 68.1841 133.479 69.4382 135.9 69.4382C144.962 67.2088 149.588 71.2961 150.768 73.6184C155.299 94.798 172.48 122.852 180.504 134.231C193.248 156.526 123.156 190.664 103.332 173.246C101.066 157.64 84.924 127.729 77.136 114.724C84.4992 115.281 93.892 111.24 97.668 109.15L96.252 107.757C60.852 118.207 78.552 96.6094 81.384 92.4293C83.6496 89.0851 82.328 84.9961 81.384 83.3696C79.9135 83.5657 78.4933 83.7181 77.136 83.8314C79.9679 88.1003 78.316 91.342 77.136 92.4293C66.3744 102.462 69.348 112.866 72.18 116.814C84.924 132.141 94.836 159.312 97.668 166.976C99.9336 173.107 101.916 176.962 102.624 178.123C108.288 187.598 123.392 187.645 130.236 186.484C141.564 183.929 167.194 175.476 179.088 162.099C190.982 148.722 186.876 136.554 183.336 132.141C175.312 120.065 158.698 92.7079 156.432 79.8887C153.6 63.8646 142.272 64.5613 135.9 65.258C130.802 65.8154 128.112 62.1423 127.404 60.2362Z" fill="#345146"/>
<path d="M108.996 95.216L113.244 93.8226L148.644 165.583L145.104 166.976L108.996 95.216Z" fill="#345146"/>
<path d="M99.084 118.207L111.828 111.937L113.952 114.724L100.5 120.994L99.084 118.207Z" fill="#345146"/>
<path d="M105.456 131.444L106.872 134.928L121.032 128.658L118.908 125.174L105.456 131.444Z" fill="#345146"/>
<path d="M112.536 146.075L113.952 148.862L127.404 142.592L125.988 139.805L112.536 146.075Z" fill="#345146"/>
<path d="M118.908 159.312L121.032 163.493L134.484 156.526L133.068 153.042L118.908 159.312Z" fill="#345146"/>
<path d="M148.644 153.739L150.768 157.222L164.22 150.952L162.096 148.165L148.644 153.739Z" fill="#345146"/>
<path d="M143.688 143.985L141.564 139.805L156.432 133.534L157.848 137.018L143.688 143.985Z" fill="#345146"/>
<path d="M137.316 130.051L134.484 125.871L148.644 119.601L150.06 123.781L137.316 130.051Z" fill="#345146"/>
<path d="M130.236 115.42L128.112 111.937L141.564 105.667L143.688 109.15L130.236 115.42Z" fill="#345146"/>
<path d="M123.156 101.486L121.032 98.0028L134.484 91.7326L136.608 95.216L123.156 101.486Z" fill="#345146"/>
<path d="M40.32 48.5372H54.48L40.32 34.6033L54.48 20.6693H40.32L33.24 27.6363L26.16 20.6693H12L26.16 34.6033L12 48.5372H26.16L33.24 41.5702L40.32 48.5372Z" fill="#345146"/>
<path d="M127.404 60.2362C126.942 60.8058 126.47 61.3628 125.988 61.9073C125.609 62.3351 125.225 62.7553 124.834 63.1679M127.404 60.2362C128.943 58.3386 130.367 56.2999 131.652 54.1108L128.112 47.1438C120.56 55.272 97.5265 72.643 65.808 77.1019L69.348 84.0689C71.5657 84.1393 74.2041 84.0763 77.136 83.8314M127.404 60.2362C128.112 62.1423 130.802 65.8154 135.9 65.258C142.272 64.5613 153.6 63.8646 156.432 79.8887C158.698 92.7079 175.312 120.065 183.336 132.141C186.876 136.554 190.982 148.722 179.088 162.099C167.194 175.476 141.564 183.929 130.236 186.484C123.392 187.645 108.288 187.598 102.624 178.123C101.916 176.962 99.9336 173.107 97.668 166.976C94.836 159.312 84.924 132.141 72.18 116.814C69.348 112.866 66.3744 102.462 77.136 92.4293C78.316 91.342 79.9679 88.1003 77.136 83.8314M77.136 83.8314C78.4933 83.7181 79.9135 83.5657 81.384 83.3696M81.384 83.3696C82.328 84.9961 83.6496 89.0851 81.384 92.4293C78.552 96.6094 60.852 118.207 96.252 107.757L97.668 109.15C93.892 111.24 84.4992 115.281 77.136 114.724C84.924 127.729 101.066 157.64 103.332 173.246C123.156 190.664 193.248 156.526 180.504 134.231C172.48 122.852 155.299 94.798 150.768 73.6184C149.588 71.2961 144.962 67.2088 135.9 69.4382C133.479 69.4382 127.876 68.1841 124.834 63.1679M81.384 83.3696C94.8846 81.5689 112.624 76.0767 124.834 63.1679M79.26 55.5042C87.52 51.324 104.465 41.9883 106.164 38.0868C108.288 33.2099 99.084 28.333 92.004 29.7264C86.34 30.8411 84.452 22.2949 84.216 17.8825C82.092 7.432 62.976 11.6122 70.056 24.8495C73.36 27.1718 79.1184 32.6525 75.72 35.9967C71.472 40.1768 66.516 49.2339 73.596 56.8976C68.876 60.3811 60.7104 68.3235 65.808 72.225C70.9056 76.1265 93.892 65.4902 104.748 59.6844C110.884 56.2009 123.722 48.2585 125.988 44.357C128.254 40.4555 122.448 38.5512 117.492 38.0868C116.312 38.0868 111.403 38.3654 109.704 39.4801C107.58 40.8735 98.376 51.324 79.26 55.5042ZM108.996 95.216L113.244 93.8226L148.644 165.583L145.104 166.976L108.996 95.216ZM99.084 118.207L111.828 111.937L113.952 114.724L100.5 120.994L99.084 118.207ZM105.456 131.444L106.872 134.928L121.032 128.658L118.908 125.174L105.456 131.444ZM112.536 146.075L113.952 148.862L127.404 142.592L125.988 139.805L112.536 146.075ZM118.908 159.312L121.032 163.493L134.484 156.526L133.068 153.042L118.908 159.312ZM148.644 153.739L150.768 157.222L164.22 150.952L162.096 148.165L148.644 153.739ZM143.688 143.985L141.564 139.805L156.432 133.534L157.848 137.018L143.688 143.985ZM137.316 130.051L134.484 125.871L148.644 119.601L150.06 123.781L137.316 130.051ZM130.236 115.42L128.112 111.937L141.564 105.667L143.688 109.15L130.236 115.42ZM123.156 101.486L121.032 98.0028L134.484 91.7326L136.608 95.216L123.156 101.486ZM12 20.6693H26.16L33.24 27.6363L40.32 20.6693H54.48L40.32 34.6033L54.48 48.5372H40.32L33.24 41.5702L26.16 48.5372H12L26.16 34.6033L12 20.6693Z" stroke="#345146"/>
</svg>
