<svg width="204" height="204" viewBox="0 0 204 204" fill="none" xmlns="http://www.w3.org/2000/svg">
<path d="M107.065 67.3069C102.938 73.2169 108.784 84.1655 112.223 88.3328C110.258 95.7203 103.97 109.927 94.5378 107.654C96.5029 109.548 98.517 113.678 93.8009 112.768C96.9941 116.557 101.907 124.702 94.5378 129.248C94.9113 129.824 96.2519 129.995 98.2223 129.872C107.587 129.29 131.176 122.089 132.771 120.322L132.856 120.156C132.856 118.451 152.015 96.8569 149.068 94.5838C155.7 90.7953 170.438 79.5815 176.333 65.0338L198.44 42.3029C204.116 35.9804 203.598 22.794 192.545 31.5058C196.229 18.4356 198.44 1.38745 178.544 26.9596C177.718 28.6583 176.521 30.8687 175.071 33.2106C190.334 6.50188 180.017 -14.5242 166.016 20.1404C165.544 20.9608 161.525 27.6102 160.858 28.6644C162.581 -0.317368 149.068 0.250906 149.068 11.048L144.647 34.9154C136.393 56.2824 125.979 56.3203 121.803 53.6684C106.328 25.2548 100.433 26.9596 96.0115 30.3693C92.4744 33.097 101.907 56.1309 107.065 67.3069Z" fill="url(#paint0_radial_121_19)"/>
<path d="M94.5378 107.654C103.97 109.927 110.258 95.7203 112.223 88.3328C108.784 84.1655 102.938 73.2169 107.065 67.3069C101.907 56.1309 92.4744 33.097 96.0115 30.3693C100.433 26.9596 106.328 25.2548 121.803 53.6684C125.979 56.3203 136.393 56.2824 144.647 34.9154L149.068 11.048C149.068 0.250906 162.581 -0.317368 160.858 28.6644M94.5378 107.654C96.5029 109.548 98.517 113.678 93.8009 112.768M94.5378 107.654C88.103 103.105 85.9606 99.4593 77.3203 101.971C74.087 102.911 69.9438 104.714 64.3252 107.654C45.1659 116.746 54.7455 107.654 33.3756 135.499L17.9009 155.957C2.42615 178.498 -15.4067 217.899 37.0601 195.168L52.9349 180.393M93.8009 112.768C86.4318 107.086 70.9572 117.883 62.8514 116.746M93.8009 112.768C96.9941 116.557 101.907 124.702 94.5378 129.248M94.5378 129.248C93.076 127.557 89.4393 127.404 85.695 127.401M94.5378 129.248C95.2747 132.09 95.8642 138 92.3271 138.909M94.5378 129.248C94.9113 129.824 96.2519 129.995 98.2223 129.872M132.856 120.156C132.856 118.451 152.015 96.8569 149.068 94.5838C155.7 90.7953 170.438 79.5815 176.333 65.0338L198.44 42.3029C204.116 35.9804 203.598 22.794 192.545 31.5058M132.856 120.156C132.828 120.211 132.8 120.266 132.771 120.322M132.856 120.156C132.856 120.204 132.827 120.26 132.771 120.322M132.856 120.156L132.771 120.322M169.701 53.6684C176.185 50.486 184.684 40.977 188.123 36.6202C189.934 34.3263 191.082 32.6584 192.545 31.5058M192.545 31.5058C196.229 18.4356 198.44 1.38745 178.544 26.9596C177.718 28.6583 176.521 30.8687 175.071 33.2106M160.858 47.4174C165.95 46.1085 171.347 39.2257 175.071 33.2106M175.071 33.2106C190.334 6.50188 180.017 -14.5242 166.016 20.1404C165.544 20.9608 161.525 27.6102 160.858 28.6644M152.752 40.5981C157.207 38.6897 157.366 34.1822 160.858 28.6644M76.1154 126.407C77.9727 127.553 81.8894 127.399 85.695 127.401M85.695 127.401L89.3795 122.429M85.695 127.401L83.4844 122.997M92.3271 138.909C89.3795 139.477 82.8948 140.045 80.5368 137.772M92.3271 138.909C97.2397 141.182 102.201 147.547 82.7475 154.821M82.7475 154.821C80.5368 159.556 72.5784 170.277 58.43 175.278M82.7475 154.821C78.0805 155.389 74.9364 155.843 76.1154 157.662M58.43 175.278L47.3767 178.12M58.43 175.278L52.9349 180.393M62.8514 141.182C62.8514 140.614 67.2728 136.636 70.2203 138.341M56.9563 132.658C57.2019 131.711 58.5774 129.93 62.1145 130.385M51.0611 126.265C51.798 125.128 50.3242 123.566 56.2194 122.997M79.063 104.813L81.2737 106.518M98.2223 129.872L120.329 116.746M98.2223 129.872L120.329 121.293M98.2223 129.872L108.539 119.019M98.2223 129.872C107.587 129.29 131.176 122.089 132.771 120.322M146.12 53.1001L126.224 78.104M157.911 58.7828L137.278 82.0819M52.9349 180.393C82.7306 191.303 95.5413 178.12 98.2223 170.164C107.033 166.993 124.867 135.725 132.771 120.322" stroke="#345146" stroke-width="3" stroke-linecap="round"/>
<defs>
<radialGradient id="paint0_radial_121_19" cx="0" cy="0" r="1" gradientUnits="userSpaceOnUse" gradientTransform="translate(92.5 119.5) rotate(-47.0184) scale(160.613)">
<stop stop-color="#345146"/>
<stop offset="0.63" stop-color="#3B594A" stop-opacity="0"/>
</radialGradient>
</defs>
</svg>
