<svg width="204" height="200" viewBox="0 0 204 200" fill="none" xmlns="http://www.w3.org/2000/svg">
<path d="M137.371 123.013C105.42 124.494 98.4005 123.63 98.8846 123.013C98.9456 122.428 99.0563 121.803 99.2237 121.161H80.7305C80.7062 120.889 80.7043 120.596 80.7305 120.292L66.5702 120.05C60.4704 117.68 69.1118 114.581 74.195 113.328C68.5297 110.628 62.6023 106.603 60.7609 101.532C53.5654 100.143 50.0401 99.9235 48.4161 98.8806C47.0081 97.9764 47.0293 96.4534 47.3268 93.0137C47.4479 88.5693 45.0757 80.1992 34.619 82.2732C37.5236 85.2361 42.3163 91.1619 38.2498 91.1619C33.1666 91.1619 30.6251 81.9029 20.8218 81.1622C26.147 87.0683 35.7808 98.8806 31.7143 98.8806C24.4526 93.8386 10.0746 85.9768 10.6555 94.8655C14.2863 95.8531 22.4193 98.8653 25.9049 103.013C16.3437 104.742 -1.68936 110.198 2.66763 118.198C8.47695 114.741 21.911 109.532 29.1727 116.346C21.3059 121.655 7.60561 134.642 15.7386 144.123C18.6433 140.543 25.6871 134.642 30.625 139.679C33.5297 143.012 37.8141 150.568 31.7143 154.123C41.5175 151.777 59.9621 143.086 55.3146 127.087C60.3978 133.506 69.0392 147.901 62.9394 154.123C55.3146 161.901 80.7304 141.901 77.4627 134.494C85.8539 141.41 100.018 155.983 90.7736 159.856C98.0603 157.044 110.043 151.062 113.495 144.823C113.253 143.086 113.109 141.449 113.045 140.049C112.198 136.593 111.229 131.679 114.134 139.679C114.749 141.373 114.445 143.108 113.495 144.823C114.62 152.888 117.857 163.119 125.026 161.901C123.332 156.345 121.831 145.16 129.383 144.864C135.439 152.024 148.746 164.419 153.534 156.715C148.994 153.259 141.147 145.531 146.085 142.271C153.71 140.79 169.831 140.049 173.316 148.938C175.374 140.79 175.495 125.087 159.519 127.457C143.544 129.827 152.379 127.704 158.793 126.346C171.743 123.877 197.788 121.531 198.369 131.901C200.79 123.63 200.548 107.902 180.215 111.161C185.54 105.729 197.353 96.495 202 103.013C199.62 96.3469 190.382 85.3102 172.469 94.4951C174.489 101.572 173.106 107.58 164.372 104.495C164.543 113.097 158.786 122.02 137.371 123.013Z" fill="#3C8363"/>
<path d="M68.7487 68.5699C66.5702 68.6934 61.9227 69.1625 60.7609 70.0514M68.7487 68.5699C70.4915 61.459 67.2964 49.805 65.481 44.8669C65.481 30.7933 57.4932 38.9412 58.2193 43.7558L60.7609 70.0514M68.7487 68.5699C71.1688 64.2793 75.2019 58.0971 79.6412 53.0848M60.7609 70.0514C59.3085 71.1624 56.4039 74.4957 52.41 77.4586C49.2148 79.8289 47.6899 88.8162 47.3268 93.0137M47.3268 93.0137C47.0293 96.4534 47.0081 97.9764 48.4161 98.8806M47.3268 93.0137C47.4479 88.5693 45.0757 80.1992 34.619 82.2732C37.5236 85.2361 42.3163 91.1619 38.2498 91.1619C33.1666 91.1619 30.6251 81.9029 20.8218 81.1622C26.147 87.0683 35.7808 98.8806 31.7143 98.8806C24.4526 93.8386 10.0746 85.9768 10.6555 94.8655C14.2863 95.8531 22.4193 98.8653 25.9049 103.013C16.3437 104.742 -1.68936 110.198 2.66763 118.198C8.47695 114.741 21.911 109.532 29.1727 116.346C21.3059 121.655 7.60561 134.642 15.7386 144.123C18.6433 140.543 25.6871 134.642 30.625 139.679C33.5297 143.012 37.8141 150.568 31.7143 154.123C41.5175 151.777 59.9621 143.086 55.3146 127.087C60.3978 133.506 69.0392 147.901 62.9394 154.123C55.3146 161.901 80.7304 141.901 77.4627 134.494C85.8539 141.41 100.018 155.983 90.7736 159.856M60.7609 101.532C63.5445 102.149 69.838 102.865 72.7426 100.791M60.7609 101.532C62.6023 106.603 68.5297 110.628 74.195 113.328M60.7609 101.532C53.5654 100.143 50.0401 99.9235 48.4161 98.8806M82.9089 71.1625C98.5941 52.2 96.9481 45.7311 94.1645 44.8669C89.9035 43.4699 84.5264 47.569 79.6412 53.0848M82.9089 71.1625C84.7069 70.9587 87.6482 71.0913 90.2689 72.2389M82.9089 71.1625C84.8454 74.7622 91.8408 82.1722 85.4505 88.9397M79.6412 53.0848C77.4627 57.7527 71.2903 65.9033 72.7426 73.0142M89.8075 54.4963C89.4444 54.8666 81.8197 70.0514 79.6412 70.0514M95.2538 77.4586C94.3392 74.7933 92.4111 73.177 90.2689 72.2389M90.2689 72.2389C101.062 62.3359 127.57 52.278 153.534 83.014M110.503 97.0876C105.275 105.384 116.07 112.643 122.122 115.235C106.713 108.309 100.716 115.435 99.2237 121.161M130.836 104.495L135.919 103.013C135.556 99.3098 136.718 91.7544 144.27 91.1619M99.2237 121.161C99.0563 121.803 98.9456 122.428 98.8846 123.013C98.4005 123.63 105.42 124.494 137.371 123.013C158.786 122.02 164.543 113.097 164.372 104.495M99.2237 121.161H80.7305C80.7062 120.889 80.7043 120.596 80.7305 120.292M92.3491 116.346C87.5657 115.055 84.6335 115.507 82.9089 116.625M80.7305 111.902C83.7561 112.272 90.5337 111.606 93.4383 105.976M82.9089 116.625C80.6496 116.003 77.466 114.886 74.195 113.328M82.9089 116.625C81.4297 117.584 80.8389 119.033 80.7305 120.292M74.195 113.328C69.1118 114.581 60.4704 117.68 66.5702 120.05L80.7305 120.292M64.7548 87.0879C64.2707 84.6188 65.481 77.4586 72.0165 82.2732M153.534 83.014C156.023 85.9603 158.507 89.2815 160.972 93.0137C162.768 96.1077 164.287 100.262 164.372 104.495M153.534 83.014C158.459 70.5022 169.398 83.7341 172.469 94.4951M164.372 104.495C173.106 107.58 174.489 101.572 172.469 94.4951M48.4161 98.8806C49.6264 99.1471 50.3767 100.199 52.41 97.8283M172.469 94.4951C190.382 85.3102 199.62 96.3469 202 103.013C197.353 96.495 185.54 105.729 180.215 111.161C200.548 107.902 200.79 123.63 198.369 131.901C197.788 121.531 171.743 123.877 158.793 126.346C152.379 127.704 143.544 129.827 159.519 127.457C175.495 125.087 175.374 140.79 173.316 148.938C169.831 140.049 153.71 140.79 146.085 142.271C141.147 145.531 148.994 153.259 153.534 156.715C148.746 164.419 135.439 152.024 129.383 144.864C121.831 145.16 123.332 156.345 125.026 161.901C117.857 163.119 114.62 152.888 113.495 144.823M90.7736 159.856C98.0603 157.044 110.043 151.062 113.495 144.823M90.7736 159.856C90.6027 159.922 90.4344 159.986 90.2689 160.049C90.4443 159.988 90.6125 159.924 90.7736 159.856ZM113.495 144.823C113.253 143.086 113.109 141.449 113.045 140.049C112.198 136.593 111.229 131.679 114.134 139.679C114.749 141.373 114.445 143.108 113.495 144.823Z" stroke="#345146" stroke-width="4" stroke-linecap="round"/>
</svg>
