<svg width="202" height="200" viewBox="0 0 202 200" fill="none" xmlns="http://www.w3.org/2000/svg">
<path d="M101.335 126.043C99.9525 124.915 96.9102 122.853 95.8039 123.627C94.6976 124.4 91.9627 124.915 90.7334 125.076L87.0458 128.942H89.8115C91.9627 128.459 97.0024 127.976 99.9525 129.909C101.71 129.425 105.943 128.749 108.812 129.909C106.971 128.507 104.501 127.091 101.335 126.043Z" fill="#345146"/>
<path fill-rule="evenodd" clip-rule="evenodd" d="M129.454 135.707C128.993 137.318 127.61 140.54 125.766 140.54C123.922 140.54 122.232 144.728 121.617 146.822C120.695 145.05 118.575 141.7 117.469 142.473C116.363 143.246 113.935 137.318 112.859 134.258C108.25 136.513 97.0024 140.347 88.8896 137.64C81.9753 139.895 66.2107 143.632 58.4666 140.54C49.8621 140.218 31.7313 138.51 28.0436 134.258C23.9519 132.87 16.4293 129.98 12.6515 127.493C12.0369 128.62 11.1727 131.552 13.754 132.325C13.4467 134.097 13.2931 137.737 15.1369 138.124C16.9807 138.51 15.9051 138.607 15.1369 138.607C15.1369 140.379 15.5978 144.019 17.4416 144.406C17.288 146.822 17.5338 151.654 19.7464 151.654C19.4391 153.426 19.3777 157.163 21.5902 157.936C21.2829 159.869 21.4058 163.928 24.356 164.701C24.0487 165.668 23.895 167.697 25.7388 168.084C25.8925 169.373 26.7529 172.047 28.9655 172.433C30.3484 175.816 35.8798 182.581 46.9427 182.581C47.8646 182.581 72.7562 188.863 90.2725 186.447C108.864 188.219 149.92 186.64 165.408 166.151C166.637 165.346 168.727 162.962 167.252 159.869C168.327 159.225 170.11 157.163 168.635 154.07C169.864 153.748 172.046 152.137 170.94 148.272C171.861 147.788 173.521 146.242 172.783 143.922C173.398 143.6 174.351 142.473 173.244 140.54C174.166 139.895 175.641 138.317 174.166 137.157C175.088 136.513 176.655 134.838 175.549 133.291C177.086 132.325 179.698 130.005 177.854 128.459C178.508 127.801 179.7 126.247 179.237 125.297C178.76 124.538 178.44 123.664 178.315 122.66C177.208 113.769 173.244 114.928 171.4 112.447C167.406 115.347 165.869 117.828 162.181 119.761C159.803 121.008 154.345 121.855 152.962 123.143C151.733 124.432 145.587 126.719 143.743 125.56C141.899 124.4 134.107 128.459 132.219 129.425C131.297 131.197 129.454 134.934 129.454 135.707ZM36.3408 144.889C33.7594 145.275 28.1973 142.795 25.7388 141.506C26.8451 148.851 38.4919 149.077 44.177 148.272C42.6405 146.983 38.9221 144.502 36.3408 144.889ZM40.9503 153.104C36.1564 154.264 29.4265 151.976 26.6607 150.688C29.2421 158.806 40.3357 157.292 45.5599 155.52L40.9503 153.104ZM45.5599 159.869C38.1846 161.415 31.4239 159.225 28.9655 157.936C31.2703 167.601 55.2399 163.735 53.3436 163.735C51.8266 163.735 47.5224 161.158 45.5599 159.869ZM46.9427 168.084C43.6239 168.471 35.1116 165.99 31.2703 164.701C33.5751 172.916 55.7009 171.467 54.318 170.983C53.2117 170.597 48.9402 168.889 46.9427 168.084ZM44.177 174.366L32.1922 172.433C35.5111 177.459 46.4818 177.749 51.5523 177.265L44.177 174.366ZM67.2247 151.654C64.6434 152.814 52.6278 152.137 46.9427 151.654C55.2399 157.453 71.3733 154.554 70.4514 154.07C69.7139 153.684 67.993 152.298 67.2247 151.654ZM47.4037 143.922C47.7725 142.376 65.6882 145.211 74.6 146.822H48.7866C48.172 146.5 47.0349 145.469 47.4037 143.922ZM52.9079 158.075L51.5523 157.936C51.8 157.803 52.2633 157.78 52.9079 158.075L70.4514 159.869C66.9349 162.124 59.2461 165.668 56.6228 161.802C55.0876 159.54 53.8173 158.491 52.9079 158.075ZM56.6228 168.084H79.2096L58.4666 172.433L56.6228 168.084ZM77.3657 175.333H58.4666C56.759 175.655 54.5526 176.782 59.3885 178.715C64.2244 180.648 73.3883 177.265 77.3657 175.333ZM77.0766 160.409C79.0173 160.585 96.4375 159.505 105.484 158.903C91.8397 165.475 80.7461 164.218 76.9048 162.768C77.0223 162.03 77.1757 160.782 77.0766 160.409C76.9406 160.396 76.8806 160.378 76.9048 160.352C76.9916 160.261 77.046 160.293 77.0766 160.409ZM101.335 149.238L105.484 151.171C95.343 153.748 75.2453 157.936 75.9829 154.07C76.3013 152.401 76.2302 151.513 75.9846 151.094C75.5029 151.121 75.0403 151.147 74.6 151.171C75.0365 150.805 75.6616 150.543 75.9846 151.094C85.085 150.582 100.985 149.605 101.335 149.238ZM92.1163 143.439H79.2096C77.2121 144.567 74.4156 147.015 79.2096 147.788C84.0035 148.561 93.8064 145.211 98.1087 143.439H92.1163ZM90.2725 170.017H80.5924C80.2851 171.145 79.8549 173.593 80.5924 174.366C81.3299 175.139 94.4211 174.044 100.874 173.4L90.2725 170.017ZM99.0306 179.682L80.5924 177.265C78.5949 177.749 75.7985 179.295 80.5924 181.615C85.3863 183.934 94.882 181.292 99.0306 179.682ZM123.461 178.232L107.328 179.682C112.122 183.547 120.081 181.292 123.461 179.682V178.232ZM104.101 169.534C104.101 168.761 118.544 169.534 125.766 170.017C125.766 170.79 111.323 172.594 104.101 173.4V169.534ZM122.078 157.936C118.083 161.158 108.526 166.924 102.257 164.218C106.099 161.802 115.441 157.163 122.078 157.936ZM102.412 155.02C102.352 155.031 102.3 155.037 102.257 155.037C102.309 155.031 102.36 155.026 102.412 155.02C104.271 154.682 114.026 149.283 121.617 150.688C127.851 151.841 111.509 154.045 102.412 155.02ZM101.335 144.406C105.945 143.761 115.256 142.473 115.625 142.473C117.134 143.117 119.614 144.792 117.469 146.339C115.323 147.885 105.819 145.694 101.335 144.406ZM126.227 146.822C131.927 146.209 143.217 144.751 144.939 143.612C145.185 143.327 145.255 143.236 145.126 143.439C145.09 143.496 145.027 143.553 144.939 143.612C143.432 145.351 135.34 154.299 126.227 146.822ZM129.915 140.54C133.141 138.929 141.346 135.707 148.353 135.707C157.111 135.707 131.11 143.439 129.915 140.54ZM125.766 155.52C130.376 153.748 140.701 150.591 145.126 152.137C150.658 154.07 128.071 157.453 125.766 155.52ZM126.227 164.218C130.222 164.379 139.226 163.735 143.282 159.869C148.353 155.037 123.922 162.285 126.227 164.218ZM131.297 171.95C137.136 171.628 148.629 170.404 147.892 168.084C146.97 165.185 131.297 170.017 131.297 171.95ZM165.869 142.473C161.72 146.339 152.87 153.2 150.658 149.721C148.445 146.242 159.877 143.439 165.869 142.473ZM152.962 140.54C154.806 140.54 164.947 140.057 169.557 133.291C174.166 126.526 152.501 137.64 152.962 140.54ZM170.94 124.866C166.023 124.936 156.097 126.043 155.728 129.909C155.359 133.775 165.715 128.158 170.94 124.866ZM149.275 157.453C149.736 157.453 156.002 152.137 163.103 152.621C163.872 154.741 162.181 158.677 149.275 157.453ZM151.118 164.218C151.487 164.218 158.033 160.997 161.259 159.386C160.645 163.252 157.756 169.63 151.118 164.218Z" fill="#345146"/>
<path d="M40.0748 61.2876C39.3877 60.2198 38.0762 59.0299 37.2627 58.3903C35.7877 57.6171 34.497 58.7125 34.036 59.3568C33.5751 63.0615 33.6673 69.6979 37.7237 66.6052C38.6456 65.7999 40.4894 63.8991 40.4894 62.7394C40.363 62.342 40.2209 61.8505 40.0748 61.2876Z" fill="#345146"/>
<path d="M55.6215 77.196C55.1028 77.9478 54.6451 78.5146 54.3181 78.6861C53.0888 81.2633 51.7367 86.0312 56.1618 84.4848C57.3911 86.2567 60.2183 87.5775 61.6933 78.6861C61.6933 77.1397 60.4641 76.1088 59.8495 75.7867C59.1074 75.5274 57.4096 75.5603 55.6215 77.196Z" fill="#345146"/>
<path d="M154.345 42.9269L149.736 53.0747C150.459 52.5689 151.146 52.0866 151.797 51.6251C167.322 40.6217 162.865 41.4126 168.174 16.8323C155.728 18.282 147.892 13.4497 145.126 50.1753C146.232 45.9229 151.733 43.5712 154.345 42.9269Z" fill="url(#paint0_radial_122_25)"/>
<path d="M112.398 120.244C101.335 115.992 89.9652 122.982 85.663 127.009C84.8654 127.595 83.6869 128.286 82.1985 128.942H87.0458L90.7334 125.076C91.9627 124.915 94.6976 124.4 95.8039 123.627C96.9102 122.853 99.9525 124.915 101.335 126.043C104.501 127.091 106.971 128.507 108.812 129.909C111.045 131.609 112.354 133.287 112.859 134.258C113.935 137.318 116.363 143.246 117.469 142.473C118.575 141.7 120.695 145.05 121.617 146.822C122.232 144.728 123.922 140.54 125.766 140.54C127.61 140.54 128.993 137.318 129.454 135.707C129.454 134.934 131.297 131.197 132.219 129.425C133.028 128.238 135.446 121.301 135.446 120.727C135.815 115.702 138.673 115.412 140.056 115.895C138.212 113.189 134.37 115.09 132.68 116.378C127.518 113.672 124.998 116.861 124.383 118.794C119.22 117.635 114.242 119.278 112.398 120.244Z" fill="url(#paint1_radial_122_25)"/>
<path d="M151.727 75.3034C151.446 77.3795 150.461 79.1924 148.353 80.3142C150.601 87.2245 152.274 99.5015 146.509 106.5C146.649 106.355 146.858 106.239 147.111 106.14C148.238 105.514 149.625 104.996 151.193 104.58C151.29 104.555 151.387 104.529 151.485 104.505C151.382 104.597 151.28 104.689 151.178 104.781C150.281 105.592 148.245 105.696 147.111 106.14C146.901 106.256 146.7 106.376 146.509 106.5C145.966 107.159 145.358 107.771 144.677 108.328C143.613 109.964 143.438 111.805 142.821 112.832C143.256 112.601 143.72 112.458 144.204 112.447C149.275 107.067 158.494 110.096 158.955 110.096C164.855 107.599 170.171 111.085 171.4 112.447C173.244 114.928 177.208 113.769 178.315 122.66C178.44 123.664 178.76 124.538 179.237 125.297C184.034 132.937 204.634 128.899 200.441 128.459C196.753 128.072 193.68 122.177 192.604 119.278C184.123 116.185 184.154 96.7267 185.229 87.3842C180.466 83.3573 170.755 75.4967 170.018 76.2699C169.28 77.0431 165.408 75.9477 163.564 75.3034C163.564 74.8202 162.55 74.1437 158.494 75.3034C154.437 76.4632 152.034 75.7867 151.727 75.3034Z" fill="url(#paint2_radial_122_25)"/>
<path d="M47.4037 122.177C46.8342 121.779 42.5907 118.021 39.3409 112.996M54.3181 78.6861C53.0888 81.2633 51.7367 86.0312 56.1618 84.4848C57.3911 86.2567 60.2183 87.5775 61.6933 78.6861M54.3181 78.6861C53.7206 78.9992 52.498 80.3271 51.0913 82.0211M54.3181 78.6861C54.6451 78.5146 55.1028 77.9478 55.6215 77.196M54.3181 78.6861C54.7496 78.0828 55.1882 77.5924 55.6215 77.196M59.8495 75.7867C60.7714 72.243 63.5371 66.5086 67.2248 71.9208M59.8495 75.7867C60.4641 76.1088 61.6933 77.1397 61.6933 78.6861M59.8495 75.7867C59.1074 75.5274 57.4096 75.5603 55.6215 77.196M59.8495 75.7867C61.7454 66.2464 58.0268 73.7099 55.6215 77.196M67.2248 71.9208C65.9956 71.7597 63.1684 72.8873 61.6933 78.6861M67.2248 71.9208C68.6607 72.7989 70.7676 75.5918 70.2361 80.619M69.0686 85.4513C68.3003 81.4244 65.7497 75.5934 61.6933 84.4848M69.0686 85.4513C68.454 87.2231 65.7497 91.3467 59.8495 93.6662C55.9076 95.2159 54.0781 99.0087 53.3436 102.364M69.0686 85.4513C69.7212 83.6553 70.0851 82.047 70.2361 80.619M52.9352 106.714C52.8842 105.591 52.9788 104.032 53.3436 102.364M53.3436 102.364C54.8976 105.586 60.587 112.706 70.9124 115.412C81.2378 118.118 85.0484 124.271 85.663 127.009M85.663 127.009C89.9652 122.982 101.335 115.992 112.398 120.244C114.242 119.278 119.22 117.635 124.383 118.794C124.998 116.861 127.518 113.672 132.68 116.378C134.37 115.09 138.212 113.189 140.056 115.895M85.663 127.009C84.8654 127.595 83.6869 128.286 82.1985 128.942M29.8874 125.56C38.7378 130.199 48.4443 130.392 53.3436 130.392C54.4079 129.232 60.5828 129.909 63.5371 130.392C71.1826 132.396 77.952 130.814 82.1985 128.942M29.8874 125.56C28.6582 122.499 22.5122 115.702 16.9807 116.861M29.8874 125.56C30.5046 123.143 31.4156 116.475 39.3409 112.996M16.9807 116.861C9.14447 114.445 8.68353 102.364 8.68353 102.364M16.9807 116.861C15.9112 113.747 14.9335 110.119 14.2796 106.714M24.8169 97.4245C19.7464 90.9814 9.42106 82.6486 8.68353 102.364M8.68353 102.364C-6.06701 110.096 3.76668 121.049 10.5273 125.56C12.0024 128.266 22.8195 132.486 28.0436 134.258M35.5463 102.364C35.5963 106.062 37.2661 109.787 39.3409 112.996M35.5463 102.364C35.5179 100.258 36.0151 98.1607 37.2627 96.173M35.5463 102.364C30.0426 91.836 22.0594 96.723 20.9429 104.297M31.8284 119.761C22.7314 116.185 20.1634 109.586 20.9429 104.297M51.0913 82.0211C49.0251 84.5095 46.5616 87.7879 45.0989 89.8004C41.2161 91.6661 38.7244 93.8442 37.2627 96.173M51.0913 82.0211C49.4012 82.037 45.5599 82.7452 43.7161 85.4513C43.8697 80.4579 44.9146 69.2147 47.8647 64.1891C47.4037 59.5178 45.0067 50.1753 39.1065 50.1753M39.1065 50.1753C38.031 51.625 36.1564 55.2976 37.2627 58.3903M39.1065 50.1753C38.369 49.4022 37.57 49.2089 37.2627 49.2089C36.836 49.8799 36.507 50.5253 36.2601 51.1418M39.1065 50.1753C38.4903 53.7284 39.3329 58.4283 40.0748 61.2876M37.2627 58.3903C36.634 57.8136 35.8768 56.6387 35.6815 55.0077M37.2627 58.3903C35.7877 57.6171 34.497 58.7125 34.036 59.3568M37.2627 58.3903C38.0762 59.0299 39.3877 60.2198 40.0748 61.2876M40.4894 62.7394C40.4894 63.8991 38.6456 65.7999 37.7237 66.6052C33.6673 69.6979 33.5751 63.0615 34.036 59.3568M40.4894 62.7394C40.363 62.342 40.2209 61.8505 40.0748 61.2876M40.4894 62.7394C40.6141 62.3471 40.426 61.8333 40.0748 61.2876M42.7942 57.4238C41.565 57.5849 39.7519 58.9702 42.3332 63.2226M36.2601 51.1418L34.497 51.625M36.2601 51.1418C35.6731 52.6078 35.5502 53.9109 35.6815 55.0077M34.497 51.625C33.602 52.9137 32.2567 56.2641 34.036 59.3568M34.497 51.625C34.9794 52.4304 35.8916 54.2345 35.6815 55.0077M34.036 59.3568C33.1141 62.7394 31.8234 70.2778 34.036 73.3705C30.963 81.6458 27.3061 97.7918 37.2627 96.173M70.2361 80.619C72.3053 79.0082 77.7345 76.1732 82.8972 77.7196M82.8972 77.7196L80.5924 75.7867M82.8972 77.7196C84.2801 79.3304 89.7193 81.1022 98.5697 77.2363M80.5924 75.7867C81.9753 73.0483 86.7692 68.7315 94.882 73.3705M80.5924 75.7867L84.2801 75.3251M94.882 73.3705C95.2508 74.9168 96.2649 75.9477 96.7258 76.2699M94.882 73.3705C94.3741 71.2978 94.3334 67.7434 96.7258 65.885C97.9551 62.7424 101.059 55.7808 103.64 53.0747C103.179 49.0478 106.59 40.6073 123.922 39.061M98.5697 77.2363L96.7258 76.2699M98.5697 77.2363C99.1177 77.5811 100.338 77.8767 101.796 77.1756M96.7258 76.2699C95.0472 77.883 90.3885 79.6831 84.2801 75.3251M82.4363 73.8537C83.0639 74.4078 83.679 74.8963 84.2801 75.3251M103.64 75.7867C103.006 76.4514 102.382 76.8939 101.796 77.1756M103.64 75.7867C105.065 77.4461 106.884 78.9773 108.998 80.3142M103.64 75.7867C103.026 74.6591 102.073 72.1141 103.179 70.9543M141.438 82.5519C125.305 87.8675 119.2 86.7638 108.998 80.3142M101.796 77.1756C102.142 78.2813 104.066 80.457 108.998 80.3142M103.179 70.9543L101.796 69.5046M103.179 70.9543L105.023 69.5486M108.25 67.0885L105.023 69.5486M99.4916 67.0885L101.796 69.5046M101.796 69.5046C102.43 69.8561 103.963 70.3569 105.023 69.5486M123.922 39.061L125.766 23.5976C125.92 20.2149 127.518 13.1598 132.68 12C134.524 12.3222 137.474 15.0927 134.524 23.5976C134.831 28.9586 134.893 39.6669 132.68 39.6124M123.922 39.061C126.085 38.9624 129.744 39.0207 132.68 39.6124M100.413 64.6723C101.643 62.5783 105.207 59.6467 109.633 64.6723M123 63.2226C123.842 60.8278 125.907 57.21 128.532 57.787M132.68 62.2562C131.878 61.3312 129.261 57.9474 128.532 57.787M168.174 16.8323C155.728 18.282 147.892 13.4497 145.126 50.1753C146.232 45.9229 151.733 43.5712 154.345 42.9269L149.736 53.0747C150.459 52.5689 151.146 52.0866 151.797 51.6251M168.174 16.8323C167.866 15.3826 164.763 13.3531 154.806 16.8323C153.577 17.1545 149.92 19.3451 145.126 25.5305C141.746 29.5574 135.354 38.3845 136.829 41.4772C136.113 40.5772 134.542 39.9876 132.68 39.6124M168.174 16.8323C162.865 41.4126 167.322 40.6217 151.797 51.6251M128.532 57.787C129.146 58.0691 133.233 59.0674 133.602 58.3903M151.797 51.6251L148.353 63.2226C150.965 67.5296 154.622 76.9777 148.353 80.3142M148.353 80.3142C150.461 79.1924 151.446 77.3795 151.727 75.3034C152.034 75.7867 154.437 76.4632 158.494 75.3034C162.55 74.1437 163.564 74.8202 163.564 75.3034C165.408 75.9477 169.28 77.0431 170.018 76.2699C170.755 75.4967 180.466 83.3573 185.229 87.3842C184.154 96.7267 184.123 116.185 192.604 119.278C193.68 122.177 196.753 128.072 200.441 128.459C204.634 128.899 184.034 132.937 179.237 125.297M148.353 80.3142C150.601 87.2245 152.274 99.5015 146.509 106.5M148.353 80.3142C150.813 87.875 152.584 101.861 144.677 108.328M92.5773 90.9574C93.0021 91.1747 93.553 91.2501 93.9601 91.2501C94.3289 93.5696 96.5722 94.4716 97.6478 94.6327C97.9413 95.1969 98.3517 95.6766 98.8525 96.0824M92.5773 90.9574C92.04 90.6825 91.7045 90.1807 92.1163 89.3172C92.8538 87.7708 95.4966 86.4178 96.7258 85.9345C98.877 84.6459 107.328 83.5184 128.071 93.183M92.5773 90.9574C92.7658 92.9879 94.2848 96.8556 98.8525 96.0824M98.8525 96.0824C102.126 98.7353 109.261 98.2307 112.859 97.5321C113.935 103.17 120.235 113.865 136.829 111.546C140.138 111.083 142.708 109.939 144.677 108.328M140.056 115.895C138.673 115.412 135.815 115.702 135.446 120.727C135.446 121.301 133.028 128.238 132.219 129.425M140.056 115.895C140.595 114.845 141.591 113.486 142.821 112.832M158.955 110.096C159.323 110.869 153.577 112.673 150.658 113.479C148.445 112.319 147.277 113.318 146.97 113.962C146.022 112.844 145.081 112.428 144.204 112.447M158.955 110.096C164.855 107.599 170.171 111.085 171.4 112.447M158.955 110.096C158.494 110.096 149.275 107.067 144.204 112.447M112.859 134.258C113.935 137.318 116.363 143.246 117.469 142.473C118.575 141.7 120.695 145.05 121.617 146.822C122.232 144.728 123.922 140.54 125.766 140.54C127.61 140.54 128.993 137.318 129.454 135.707C129.454 134.934 131.297 131.197 132.219 129.425M112.859 134.258C112.354 133.287 111.045 131.609 108.812 129.909M112.859 134.258C108.25 136.513 97.0024 140.347 88.8896 137.64C81.9753 139.895 66.2107 143.632 58.4666 140.54C49.8621 140.218 31.7313 138.51 28.0436 134.258M87.0458 128.942L90.7334 125.076C91.9627 124.915 94.6976 124.4 95.8039 123.627C96.9102 122.853 99.9525 124.915 101.335 126.043C104.501 127.091 106.971 128.507 108.812 129.909M87.0458 128.942H82.1985M87.0458 128.942H89.8115C91.9627 128.459 97.0024 127.976 99.9525 129.909C101.71 129.425 105.943 128.749 108.812 129.909M132.219 129.425C134.107 128.459 141.899 124.4 143.743 125.56C145.587 126.719 151.733 124.432 152.962 123.143C154.345 121.855 159.803 121.008 162.181 119.761C165.869 117.828 167.406 115.347 171.4 112.447M171.4 112.447C173.244 114.928 177.208 113.769 178.315 122.66C178.44 123.664 178.76 124.538 179.237 125.297M144.204 112.447C143.72 112.458 143.256 112.601 142.821 112.832M142.821 112.832C143.438 111.805 143.613 109.964 144.677 108.328M164.486 103.331C159.865 103.188 155.196 103.565 151.485 104.505M146.509 106.5C146.649 106.355 146.858 106.239 147.111 106.14M146.509 106.5C146.7 106.376 146.901 106.256 147.111 106.14M146.509 106.5C145.966 107.159 145.358 107.771 144.677 108.328M146.509 106.5C145.691 107.03 145.111 107.662 144.677 108.328M170.018 94.6327C164.376 94.3214 156.561 99.9694 151.485 104.505M151.178 104.781C151.28 104.689 151.382 104.597 151.485 104.505M151.178 104.781C150.281 105.592 148.245 105.696 147.111 106.14M151.178 104.781C151.183 104.713 151.188 104.647 151.193 104.58M177.854 87.8675C161.82 92.3929 155.686 93.0263 153.125 96.5657M153.125 96.5657C152.501 89.3172 150.658 86.4178 174.166 82.5519M153.125 96.5657C151.878 98.288 151.477 100.698 151.193 104.58M28.0436 134.258C23.9519 132.87 16.4293 129.98 12.6515 127.493C12.0369 128.62 11.1727 131.552 13.754 132.325C13.4467 134.097 13.2931 137.737 15.1369 138.124C16.9807 138.51 15.9051 138.607 15.1369 138.607C15.1369 140.379 15.5978 144.019 17.4416 144.406C17.288 146.822 17.5338 151.654 19.7464 151.654C19.4391 153.426 19.3777 157.163 21.5902 157.936C21.2829 159.869 21.4058 163.928 24.356 164.701C24.0487 165.668 23.895 167.697 25.7388 168.084C25.8925 169.373 26.7529 172.047 28.9655 172.433C30.3484 175.816 35.8798 182.581 46.9427 182.581C47.8646 182.581 72.7562 188.863 90.2725 186.447C108.864 188.219 149.92 186.64 165.408 166.151C166.637 165.346 168.727 162.962 167.252 159.869C168.327 159.225 170.11 157.163 168.635 154.07C169.864 153.748 172.046 152.137 170.94 148.272C171.861 147.788 173.521 146.242 172.783 143.922C173.398 143.6 174.351 142.473 173.244 140.54C174.166 139.895 175.641 138.317 174.166 137.157C175.088 136.513 176.655 134.838 175.549 133.291C177.086 132.325 179.698 130.005 177.854 128.459C178.508 127.801 179.7 126.247 179.237 125.297M13.4727 100.431C13.2057 94.2712 15.2819 91.606 22.2186 100.431C18.6648 99.2717 14.9073 99.9483 13.4727 100.431ZM13.4727 100.431C13.5529 102.282 13.8446 104.449 14.2796 106.714M14.2796 106.714C15.824 105.908 19.3188 104.297 20.9429 104.297M74.6 146.822C65.6882 145.211 47.7725 142.376 47.4037 143.922C47.0349 145.469 48.172 146.5 48.7866 146.822M74.6 146.822C72.3874 146.822 56.4691 146.822 48.7866 146.822M74.6 146.822H48.7866M104.101 169.534C104.101 168.761 118.544 169.534 125.766 170.017C125.766 170.79 111.323 172.594 104.101 173.4M104.101 169.534C104.101 170.307 104.101 172.433 104.101 173.4M104.101 169.534V173.4M52.9079 158.075L51.5523 157.936C51.8 157.803 52.2633 157.78 52.9079 158.075ZM52.9079 158.075L70.4514 159.869C66.9349 162.124 59.2461 165.668 56.6228 161.802C55.0876 159.54 53.8173 158.491 52.9079 158.075ZM77.0766 160.409C79.0173 160.585 96.4375 159.505 105.484 158.903C91.8397 165.475 80.7461 164.218 76.9048 162.768C77.0223 162.03 77.1757 160.782 77.0766 160.409ZM77.0766 160.409C76.9406 160.396 76.8806 160.378 76.9048 160.352C76.9916 160.261 77.046 160.293 77.0766 160.409ZM75.9846 151.094C76.2302 151.513 76.3013 152.401 75.9829 154.07C75.2453 157.936 95.343 153.748 105.484 151.171L101.335 149.238C100.985 149.605 85.085 150.582 75.9846 151.094ZM75.9846 151.094C75.5029 151.121 75.0403 151.147 74.6 151.171C75.0365 150.805 75.6616 150.543 75.9846 151.094ZM102.412 155.02C102.352 155.031 102.3 155.037 102.257 155.037C102.309 155.031 102.36 155.026 102.412 155.02ZM102.412 155.02C104.271 154.682 114.026 149.283 121.617 150.688C127.851 151.841 111.509 154.045 102.412 155.02ZM144.939 143.612C143.217 144.751 131.927 146.209 126.227 146.822C135.34 154.299 143.432 145.351 144.939 143.612ZM144.939 143.612C145.185 143.327 145.255 143.236 145.126 143.439C145.09 143.496 145.027 143.553 144.939 143.612ZM147.111 106.14C148.238 105.514 149.625 104.996 151.193 104.58M151.193 104.58C151.29 104.555 151.387 104.529 151.485 104.505M25.7388 141.506C28.1973 142.795 33.7594 145.275 36.3408 144.889C38.9221 144.502 42.6405 146.983 44.177 148.272C38.4919 149.077 26.8451 148.851 25.7388 141.506ZM26.6607 150.688C29.4265 151.976 36.1564 154.264 40.9503 153.104L45.5599 155.52C40.3357 157.292 29.2421 158.806 26.6607 150.688ZM28.9655 157.936C31.4239 159.225 38.1846 161.415 45.5599 159.869C47.5224 161.158 51.8266 163.735 53.3436 163.735C55.2399 163.735 31.2703 167.601 28.9655 157.936ZM31.2703 164.701C35.1116 165.99 43.6239 168.471 46.9427 168.084C48.9402 168.889 53.2117 170.597 54.318 170.983C55.7009 171.467 33.5751 172.916 31.2703 164.701ZM32.1922 172.433L44.177 174.366L51.5523 177.265C46.4818 177.749 35.5111 177.459 32.1922 172.433ZM46.9427 151.654C52.6278 152.137 64.6434 152.814 67.2247 151.654C67.993 152.298 69.7139 153.684 70.4514 154.07C71.3733 154.554 55.2399 157.453 46.9427 151.654ZM79.2096 168.084H56.6228L58.4666 172.433L79.2096 168.084ZM58.4666 175.333H77.3657C73.3883 177.265 64.2244 180.648 59.3885 178.715C54.5526 176.782 56.759 175.655 58.4666 175.333ZM79.2096 143.439H92.1163H98.1087C93.8064 145.211 84.0035 148.561 79.2096 147.788C74.4156 147.015 77.2121 144.567 79.2096 143.439ZM80.5924 170.017H90.2725L100.874 173.4C94.4211 174.044 81.3299 175.139 80.5924 174.366C79.8549 173.593 80.2851 171.145 80.5924 170.017ZM80.5924 177.265L99.0306 179.682C94.882 181.292 85.3863 183.934 80.5924 181.615C75.7985 179.295 78.5949 177.749 80.5924 177.265ZM107.328 179.682L123.461 178.232V179.682C120.081 181.292 112.122 183.547 107.328 179.682ZM122.078 157.936C118.083 161.158 108.526 166.924 102.257 164.218C106.099 161.802 115.441 157.163 122.078 157.936ZM115.625 142.473C115.256 142.473 105.945 143.761 101.335 144.406C105.819 145.694 115.323 147.885 117.469 146.339C119.614 144.792 117.134 143.117 115.625 142.473ZM129.915 140.54C133.141 138.929 141.346 135.707 148.353 135.707C157.111 135.707 131.11 143.439 129.915 140.54ZM125.766 155.52C130.376 153.748 140.701 150.591 145.126 152.137C150.658 154.07 128.071 157.453 125.766 155.52ZM126.227 164.218C130.222 164.379 139.226 163.735 143.282 159.869C148.353 155.037 123.922 162.285 126.227 164.218ZM131.297 171.95C137.136 171.628 148.629 170.404 147.892 168.084C146.97 165.185 131.297 170.017 131.297 171.95ZM165.869 142.473C161.72 146.339 152.87 153.2 150.658 149.721C148.445 146.242 159.877 143.439 165.869 142.473ZM152.962 140.54C154.806 140.54 164.947 140.057 169.557 133.291C174.166 126.526 152.501 137.64 152.962 140.54ZM170.94 124.866C166.023 124.936 156.097 126.043 155.728 129.909C155.359 133.775 165.715 128.158 170.94 124.866ZM149.275 157.453C149.736 157.453 156.002 152.137 163.103 152.621C163.872 154.741 162.181 158.677 149.275 157.453ZM151.118 164.218C151.487 164.218 158.033 160.997 161.259 159.386C160.645 163.252 157.756 169.63 151.118 164.218Z" stroke="#345146" stroke-width="2"/>
<defs>
<radialGradient id="paint0_radial_122_25" cx="0" cy="0" r="1" gradientUnits="userSpaceOnUse" gradientTransform="translate(133.602 69.9879) rotate(-54.3282) scale(89.893 106.193)">
<stop offset="0.187558" stop-color="#345146"/>
<stop offset="0.634133" stop-opacity="0"/>
</radialGradient>
<radialGradient id="paint1_radial_122_25" cx="0" cy="0" r="1" gradientUnits="userSpaceOnUse" gradientTransform="translate(136.368 99.465) rotate(52.5926) scale(70.5683 83.5958)">
<stop offset="0.158865" stop-color="#345146"/>
<stop offset="0.535688" stop-color="white" stop-opacity="0"/>
</radialGradient>
<radialGradient id="paint2_radial_122_25" cx="0" cy="0" r="1" gradientUnits="userSpaceOnUse" gradientTransform="translate(136.368 99.465) rotate(52.5926) scale(70.5683 83.5958)">
<stop offset="0.158865" stop-color="#345146"/>
<stop offset="0.535688" stop-color="white" stop-opacity="0"/>
</radialGradient>
</defs>
</svg>
