<svg width="200" height="200" viewBox="0 0 200 200" fill="none" xmlns="http://www.w3.org/2000/svg">
<path fill-rule="evenodd" clip-rule="evenodd" d="M79.5042 71.5795C71.2001 51.3015 52.772 22.1713 39.3539 43.0477C35.3809 44.6073 30.4346 47.9546 28.1976 53C25.7966 58.4152 26.5167 65.7866 34.9112 75.0033C38.2712 79.3216 44.3729 83.5092 47.7448 75.0033C48.2361 73.764 48.6695 72.2553 49.0279 70.4382C49.4603 68.2465 49.7838 65.6063 49.9686 62.4493C48.4048 58.9824 46.2604 52.811 46.3147 48.1834C49.2701 45.3302 61.4354 50.0095 74.8712 73.2914L67.3425 78.4271L49.0279 70.4382C48.6695 72.2553 48.2361 73.764 47.7448 75.0033L63.8677 82.4216C62.328 85.1262 55.328 90.5105 55.328 112.466C55.328 134.422 73.0794 141.866 74.6074 142.337C84.6141 145.424 101.761 148.337 117.463 144.13C120.429 143.335 141.661 135.142 141.661 119.977C141.661 104.813 137.996 89.2692 128.73 79.5684C227.761 -2.60311 131.626 -15.1571 113.673 71.5795C100.7 65.6449 85.1025 69.1067 79.5042 71.5795ZM118.885 75.0033C142.05 8.23895 195.909 -4.31501 123.518 77.2858L118.885 75.0033ZM92.5603 125.177C95.4248 125.443 98.5259 125.49 101.681 125.177C97.8576 140.703 94.0075 131.646 92.5603 125.177ZM96.6143 108.41C87.3482 109.551 96.0351 118.111 97.7725 118.681C99.5099 119.252 105.88 107.269 96.6143 108.41Z" fill="url(#paint0_linear_122_30)"/>
<path d="M97.7725 178.598C90.847 183 99 195.5 105.88 184.304C106.916 183.363 108.117 182.055 109.355 180.411C111.37 177.737 113.483 174.174 115.146 169.862C117.794 162.999 119.303 154.236 117.463 144.13C101.761 148.337 84.6141 145.424 74.6074 142.337C74.0474 148.025 73.9033 157.473 75.5994 165.473C76.3882 169.195 77.5752 172.603 79.3036 175.174C80.265 176.605 81.394 177.776 82.7152 178.598C87.3811 181.502 89.7582 180.686 90.847 178.598H97.7725Z" fill="url(#paint1_linear_122_30)"/>
<path d="M109.355 180.411C111.37 177.737 113.483 174.174 115.146 169.862C142.5 164.5 128 208 109.355 180.411Z" fill="url(#paint2_linear_122_30)"/>
<path d="M75.5994 165.473C76.3882 169.195 77.5752 172.603 79.3036 175.174C79.3036 200.5 36.5 171.75 75.5994 165.473Z" fill="url(#paint3_linear_122_30)"/>
<path d="M96.6143 108.41C87.3482 109.551 96.0351 118.111 97.7725 118.681C99.5099 119.252 105.88 107.269 96.6143 108.41Z" fill="#345146"/>
<path d="M92.5603 125.177C95.4248 125.443 98.5259 125.49 101.681 125.177C97.8576 140.703 94.0075 131.646 92.5603 125.177Z" fill="white"/>
<path d="M36.6486 48.1834C37.5199 46.2 38.4235 44.4954 39.3539 43.0477M39.3539 43.0477C52.772 22.1713 71.2001 51.3015 79.5042 71.5795C85.1025 69.1067 100.7 65.6449 113.673 71.5795C131.626 -15.1571 227.761 -2.60311 128.73 79.5684C137.996 89.2692 141.661 104.813 141.661 119.977M39.3539 43.0477C35.3809 44.6073 30.4346 47.9546 28.1976 53M49.9686 62.4493C48.4048 58.9824 46.2604 52.811 46.3147 48.1834M49.9686 62.4493C49.7838 65.6063 49.4603 68.2465 49.0279 70.4382M49.9686 62.4493C44.3435 93.2088 28.7182 66 28.1976 53M48.2312 43.0477C46.8763 44.0861 46.3408 45.9559 46.3147 48.1834M46.3147 48.1834C49.2701 45.3302 61.4354 50.0095 74.8712 73.2914L67.3425 78.4271L49.0279 70.4382M49.0279 70.4382C48.6695 72.2553 48.2361 73.764 47.7448 75.0033M47.7448 75.0033C44.3729 83.5092 38.2712 79.3216 34.9112 75.0033C26.5167 65.7866 25.7966 58.4152 28.1976 53M47.7448 75.0033L63.8677 82.4216C62.328 85.1262 55.328 90.5105 55.328 112.466M141.661 119.977C141.661 135.142 120.429 143.335 117.463 144.13M141.661 119.977C126.004 157.485 53.5 148 55.328 112.466M55.328 112.466C55.328 134.422 73.0794 141.866 74.6074 142.337M81.5569 122.889C84.1793 123.817 88.0804 124.763 92.5603 125.177M119.2 118.324C114.033 122.632 107.757 124.574 101.681 125.177M92.5603 125.177C95.4248 125.443 98.5259 125.49 101.681 125.177M92.5603 125.177C94.0075 131.646 97.8576 140.703 101.681 125.177M72.8357 104.986C72.9374 102.18 73.5928 99.6735 74.6074 97.5679M92.5261 104.986C92.1893 92.0453 85.7822 88.7518 80.3644 91.4031M120.792 104.986C120.86 103.109 120.648 101.39 120.222 99.8504M101.681 104.986C101.681 91.6995 109.918 88.916 115.58 92.9303M69.9743 88.55C72.4839 85.1261 79.1246 79.6481 85.6108 85.1262M110.947 85.1262C114.228 83.9849 121.603 83.6425 124.846 91.4031M115.58 92.9303C116.368 93.4888 117.106 94.179 117.765 94.9908M115.58 92.9303C116.148 93.5539 116.909 94.2943 117.765 94.9908M124.846 96.4266C123.149 98.4753 120.106 96.8976 117.765 94.9908M120.222 99.8504C121.377 100.611 124.151 101.905 126.004 100.992M120.222 99.8504C119.692 97.9397 118.832 96.3057 117.765 94.9908M74.6074 97.5679C73.6307 97.5195 70.2714 99.669 69.3447 98.3575M74.6074 97.5679C75.9045 94.8759 77.7888 92.8397 79.8538 91.6723M80.3644 91.4031C80.1931 91.4869 80.0228 91.5767 79.8538 91.6723M80.3644 91.4031C80.2105 91.4907 80.0393 91.5814 79.8538 91.6723M71.6613 93.9771C73.3503 96.1393 77.9456 92.6073 79.8538 91.6723M74.6074 142.337C84.6141 145.424 101.761 148.337 117.463 144.13M74.6074 142.337C74.0474 148.025 73.9033 157.473 75.5994 165.473M74.6074 142.337C82.0468 147.494 101.033 155.072 117.463 144.13M89.5 171.5C86.2183 167.506 83.7569 158.326 87 156.5M89.5 171.5C89.8629 173.645 91.8124 176.747 90.847 178.598M89.5 171.5C89.5 184.304 79.6676 172.321 75.5994 165.473M108.197 157.485L97.7725 178.598M97.7725 178.598C90.847 183 99 195.5 105.88 184.304M97.7725 178.598H90.847M97.7725 178.598C96.9352 181.798 97.3846 187.419 105.88 184.304M105.88 184.304C106.916 183.363 108.117 182.055 109.355 180.411M117.463 144.13C119.303 154.236 117.794 162.999 115.146 169.862M90.847 178.598C89.7582 180.686 87.3811 181.502 82.7152 178.598C81.394 177.776 80.265 176.605 79.3036 175.174M115.146 169.862C113.483 174.174 111.37 177.737 109.355 180.411M115.146 169.862C142.5 164.5 128 208 109.355 180.411M115.146 169.862C135.5 168.5 130 198.5 109.355 180.411M75.5994 165.473C76.3882 169.195 77.5752 172.603 79.3036 175.174M75.5994 165.473C36.5 171.75 79.3036 200.5 79.3036 175.174M75.5994 165.473C49.5 171.75 69.3447 193 79.3036 175.174M118.885 75.0033C142.05 8.23895 195.909 -4.31501 123.518 77.2858L118.885 75.0033ZM96.6143 108.41C87.3482 109.551 96.0351 118.111 97.7725 118.681C99.5099 119.252 105.88 107.269 96.6143 108.41Z" stroke="#345146" stroke-width="4" stroke-linecap="round"/>
<defs>
<linearGradient id="paint0_linear_122_30" x1="99.9167" y1="12" x2="99.9167" y2="187" gradientUnits="userSpaceOnUse">
<stop offset="0.433196" stop-color="#3C8363"/>
<stop offset="0.791551" stop-color="white" stop-opacity="0"/>
</linearGradient>
<linearGradient id="paint1_linear_122_30" x1="99.9167" y1="12" x2="99.9167" y2="187" gradientUnits="userSpaceOnUse">
<stop offset="0.433196" stop-color="#3C8363"/>
<stop offset="0.791551" stop-color="white" stop-opacity="0"/>
</linearGradient>
<linearGradient id="paint2_linear_122_30" x1="99.9167" y1="12" x2="99.9167" y2="187" gradientUnits="userSpaceOnUse">
<stop offset="0.433196" stop-color="#3C8363"/>
<stop offset="0.791551" stop-color="white" stop-opacity="0"/>
</linearGradient>
<linearGradient id="paint3_linear_122_30" x1="99.9167" y1="12" x2="99.9167" y2="187" gradientUnits="userSpaceOnUse">
<stop offset="0.433196" stop-color="#3C8363"/>
<stop offset="0.791551" stop-color="white" stop-opacity="0"/>
</linearGradient>
</defs>
</svg>
