<svg width="204" height="200" viewBox="0 0 204 200" fill="none" xmlns="http://www.w3.org/2000/svg">
<path d="M2.01347 30.3537C1.69068 41.9608 7.04894 68.7038 31.0643 82.8181C31.566 84.8627 33.1593 89.057 36.026 92.5682C36.8482 93.5752 37.7752 94.5261 38.8111 95.3539C37.0358 89.1634 33.3883 76.3181 33.001 74.461C32.6136 72.6038 35.7447 77.4015 37.3586 80.0324C44.6213 66.1038 47.72 36.668 2.01347 30.3537Z" fill="url(#paint0_radial_122_30)"/>
<path d="M95.4602 30.3537C91.4254 34.3775 84.7114 48.5537 90.1342 73.0681C92.7165 73.2229 97.3969 64.8967 95.4602 30.3537Z" fill="url(#paint1_radial_122_30)"/>
<path d="M185.518 102.318C188.229 98.2325 185.679 97.2111 184.065 97.2111L179.223 99.0682C172.638 99.8111 171.961 111.759 172.445 117.64C173.413 115.937 176.028 112.44 178.739 112.068C176.802 114.544 173.316 119.497 174.866 119.497C176.415 119.497 181.069 114.544 183.203 112.068C185.107 108.142 185.608 104.408 185.518 102.318Z" fill="url(#paint2_radial_122_30)"/>
<path d="M98.8494 156.64C82.1937 161.468 80.9348 166.08 82.3873 167.783C85.2924 172.271 94.2013 178.276 106.596 166.39C109.822 163.572 113.839 157.593 114.873 149.11C113.947 153.523 103.949 155.957 98.8494 156.64Z" fill="url(#paint3_radial_122_30)"/>
<path d="M21.3807 163.14C28.8048 169.64 44.234 179.669 46.558 167.783C39.6258 163.604 24.8852 156.826 21.3807 163.14Z" fill="url(#paint4_radial_122_30)"/>
<path d="M184.649 139.926C182.721 135.503 178.436 132.653 175.834 131.568C164.071 136.856 146.963 140.72 139.521 137.939C130.224 148.607 133.065 159.494 135.647 163.604C144.169 156.918 148.236 165.771 149.204 171.033C151.948 171.961 158.5 173.261 162.761 171.033C170.895 155.433 177.771 163.604 180.192 169.64L183.097 167.51L188.423 163.604C190.841 162.177 192.195 160.383 192.78 158.404C194.633 152.143 188.793 144.042 184.649 139.926Z" fill="url(#paint5_radial_122_30)"/>
<path d="M149.204 171.033C148.236 165.771 144.169 156.918 135.647 163.604C132.923 169.021 131.82 178.09 149.204 171.033Z" fill="url(#paint6_radial_122_30)"/>
<path d="M180.192 169.64C177.771 163.604 170.895 155.433 162.761 171.033C167.086 174.314 176.626 178.629 180.192 169.64Z" fill="url(#paint7_radial_122_30)"/>
<path d="M188.423 163.604L183.097 167.51C195.201 174.747 213.116 167.51 192.78 158.404C192.195 160.383 190.841 162.177 188.423 163.604Z" fill="url(#paint8_radial_122_30)"/>
<path d="M57.6942 131.568C48.8175 131.259 24.4794 129.154 25.2541 115.783C19.0812 125.842 9.66438 149.397 21.3807 163.14C24.8852 156.826 39.6258 163.604 46.558 167.783C53.0138 170.414 69.2176 174.097 82.3873 167.783C80.9348 166.08 82.1937 161.468 98.8494 156.64C103.949 155.957 113.947 153.523 114.873 149.11C114.897 148.908 114.92 148.705 114.941 148.5C115.692 141.245 114.255 132.22 108.367 121.818C107.925 122.745 107.341 123.675 106.596 124.604C105.037 129.518 101.155 136.762 95.4602 137.847C85.7766 145.841 77.5455 142.07 74.6405 139.185C68.7767 139.82 62.3563 138.274 57.6942 131.568Z" fill="url(#paint9_radial_122_30)"/>
<path d="M58.1783 64.7109C52.3682 52.6395 33.001 28.8679 2.01347 30.3537M58.1783 64.7109C59.8747 63.6943 66.8936 61.5538 72.7037 63.7824M58.1783 64.7109C54.3049 67.0324 54.3049 66.5681 51.3998 69.8181M2.01347 30.3537C1.69068 41.9608 7.04894 68.7038 31.0643 82.8181C31.566 84.8627 33.1593 89.057 36.026 92.5682M2.01347 30.3537C47.72 36.668 44.6213 66.1038 37.3586 80.0324C35.7447 77.4015 32.6136 72.6038 33.001 74.461C33.3883 76.3181 37.0358 89.1634 38.8111 95.3539C37.7752 94.5261 36.8482 93.5752 36.026 92.5682M72.7037 63.7824C73.3493 56.0442 73.6721 47.5323 83.8399 35.9251C86.9063 29.1156 93.5235 18.4679 95.4602 30.3537M72.7037 63.7824C75.1246 64.7109 80.4506 67.2181 82.3873 69.8181M95.4602 30.3537C91.4254 34.3775 84.7114 48.5537 90.1342 73.0681M95.4602 30.3537C97.3969 64.8967 92.7165 73.2229 90.1342 73.0681M90.1342 73.0681C93.0393 76.6276 98.1716 85.0467 95.4602 90.2467M95.4602 90.2467C97.2355 92.8777 100.399 98.7896 98.8494 101.39M95.4602 90.2467C96.2349 90.2467 98.0425 97.6754 98.8494 101.39M98.8494 101.39C104.101 104.747 112.516 113.11 108.367 121.818M86.745 134.818C87.2291 134.045 88.0038 131.94 87.2291 129.711M86.745 134.818C83.9673 136.641 79.4947 138.66 74.6405 139.185M86.745 134.818C89.9844 137.58 92.9048 138.333 95.4602 137.847M87.2291 129.711L83.8399 126.461M87.2291 129.711C88.2132 128.879 89.5502 127.7 90.8604 126.461M78.0297 120.89L83.8399 126.461M95.4602 120.89C95.4602 121.843 93.2032 124.247 90.8604 126.461M83.8399 126.461C85.2598 127.39 88.6517 128.69 90.8604 126.461M78.0297 115.783C81.419 113.616 89.65 110.675 95.4602 116.247M25.2541 115.783C24.4794 129.154 48.8175 131.259 57.6942 131.568C62.3563 138.274 68.7767 139.82 74.6405 139.185M25.2541 115.783C22.5427 108.725 29.9345 103.247 33.9693 101.39C32.324 99.5325 34.6549 94.7349 36.026 92.5682M25.2541 115.783C19.0812 125.842 9.66438 149.397 21.3807 163.14M51.3998 97.6754C52.0603 96.3635 52.4379 94.5609 53.3365 93.7411M59.6309 104.64C59.3568 92.811 55.5123 91.7562 53.3365 93.7411M21.3807 163.14C28.8048 169.64 44.234 179.669 46.558 167.783M21.3807 163.14C24.8852 156.826 39.6258 163.604 46.558 167.783M46.558 167.783C53.0138 170.414 69.2176 174.097 82.3873 167.783M82.3873 167.783C80.9348 166.08 82.1937 161.468 98.8494 156.64C103.949 155.957 113.947 153.523 114.873 149.11M82.3873 167.783C85.2924 172.271 94.2013 178.276 106.596 166.39C109.822 163.572 113.839 157.593 114.873 149.11M43.1688 156.64C53.0138 159.116 76.1898 162.118 90.1342 154.318M108.367 121.818C107.925 122.745 107.341 123.675 106.596 124.604C105.037 129.518 101.155 136.762 95.4602 137.847M108.367 121.818C114.255 132.22 115.692 141.245 114.941 148.5M74.6405 139.185C77.5455 142.07 85.7766 145.841 95.4602 137.847M53.3365 93.7411C52.3682 94.2868 49.8504 94.8065 49.4631 93.4968M69.3145 69.8181C72.5423 72.1395 79.2886 79.9396 80.4506 92.5682M169.056 103.711C171.799 100.616 178.642 94.9825 184.065 97.2111M169.056 103.711C169.863 108.354 170.508 117.825 166.635 118.568M169.056 103.711C168.461 103.331 167.643 102.927 166.635 102.57M175.834 131.568V127.39C177.771 125.533 176.641 122.283 175.834 120.89C179.393 118.29 181.722 115.121 183.203 112.068M175.834 131.568C178.436 132.653 182.721 135.503 184.649 139.926M175.834 131.568C164.071 136.856 146.963 140.72 139.521 137.939M184.065 97.2111C185.679 97.2111 188.229 98.2325 185.518 102.318C185.608 104.408 185.107 108.142 183.203 112.068M184.065 97.2111L179.223 99.0682C172.638 99.8111 171.961 111.759 172.445 117.64C173.413 115.937 176.028 112.44 178.739 112.068C176.802 114.544 173.316 119.497 174.866 119.497C176.415 119.497 181.069 114.544 183.203 112.068M185.518 146.426C185.865 143.983 185.471 141.811 184.649 139.926M184.649 139.926C188.793 144.042 194.633 152.143 192.78 158.404M180.192 169.64L183.097 167.51M180.192 169.64C177.771 163.604 170.895 155.433 162.761 171.033M180.192 169.64C176.626 178.629 167.086 174.314 162.761 171.033M183.097 167.51L188.423 163.604C190.841 162.177 192.195 160.383 192.78 158.404M183.097 167.51C195.201 174.747 213.116 167.51 192.78 158.404M162.761 171.033C158.5 173.261 151.948 171.961 149.204 171.033M149.204 171.033C148.236 165.771 144.169 156.918 135.647 163.604M149.204 171.033C131.82 178.09 132.923 169.021 135.647 163.604M135.647 163.604C133.065 159.494 130.224 148.607 139.521 137.939M139.521 137.939C137.16 137.057 135.187 135.974 133.71 134.818C125.964 132.59 127.9 125.223 129.837 121.818C133.323 109.933 143.555 105.413 148.236 104.64C152.1 102.565 155.732 101.702 158.888 101.533M132.742 128.318C133.129 127.947 130.967 126.306 129.837 125.533M132.742 128.318L136.615 125.533M132.742 128.318C133.021 129.188 133.602 130.434 134.484 131.568M131.29 122.747C132.258 121.664 134.679 120.147 136.615 122.747M139.521 134.354C137.322 134.354 135.643 133.058 134.484 131.568M134.484 131.568L132.258 132.033M148.72 121.818C149.366 118.878 151.819 114.297 156.467 119.497M158.888 101.533C162.021 101.365 164.684 101.88 166.635 102.57M158.888 101.533C161.793 93.9611 175.834 89.3182 166.635 102.57M114.941 148.5C114.92 148.705 114.897 148.908 114.873 149.11M114.941 148.5C114.938 148.707 114.915 148.911 114.873 149.11" stroke="#345146" stroke-width="3"/>
<defs>
<radialGradient id="paint0_radial_122_30" cx="0" cy="0" r="1" gradientUnits="userSpaceOnUse" gradientTransform="translate(60.5 82) rotate(-100.271) scale(75.7133 100.951)">
<stop offset="0.215903" stop-color="#345146"/>
<stop offset="1" stop-color="#75B79E" stop-opacity="0"/>
</radialGradient>
<radialGradient id="paint1_radial_122_30" cx="0" cy="0" r="1" gradientUnits="userSpaceOnUse" gradientTransform="translate(60.5 82) rotate(-100.271) scale(75.7133 100.951)">
<stop offset="0.215903" stop-color="#345146"/>
<stop offset="1" stop-color="#75B79E" stop-opacity="0"/>
</radialGradient>
<radialGradient id="paint2_radial_122_30" cx="0" cy="0" r="1" gradientUnits="userSpaceOnUse" gradientTransform="translate(162 120) rotate(-34.992) scale(42.7229 56.9639)">
<stop offset="0.345726" stop-color="#345146"/>
<stop offset="0.836257" stop-color="#75B79E" stop-opacity="0"/>
</radialGradient>
<radialGradient id="paint3_radial_122_30" cx="0" cy="0" r="1" gradientUnits="userSpaceOnUse" gradientTransform="translate(63 158) rotate(88.5057) scale(57.5196 110.026)">
<stop offset="0.0872304" stop-color="#345146"/>
<stop offset="0.540611" stop-color="#75B79E" stop-opacity="0"/>
</radialGradient>
<radialGradient id="paint4_radial_122_30" cx="0" cy="0" r="1" gradientUnits="userSpaceOnUse" gradientTransform="translate(63 158) rotate(88.5057) scale(57.5196 110.026)">
<stop offset="0.0872304" stop-color="#345146"/>
<stop offset="0.540611" stop-color="#75B79E" stop-opacity="0"/>
</radialGradient>
<radialGradient id="paint5_radial_122_30" cx="0" cy="0" r="1" gradientUnits="userSpaceOnUse" gradientTransform="translate(147 133) rotate(69.7024) scale(38.9166 51.8888)">
<stop offset="0.0798594" stop-color="#345146"/>
<stop offset="0.549605" stop-color="#75B79E" stop-opacity="0"/>
</radialGradient>
<radialGradient id="paint6_radial_122_30" cx="0" cy="0" r="1" gradientUnits="userSpaceOnUse" gradientTransform="translate(164 109.5) rotate(90.9935) scale(86.513 115.351)">
<stop offset="0.215903" stop-color="#345146"/>
<stop offset="1" stop-color="#75B79E" stop-opacity="0"/>
</radialGradient>
<radialGradient id="paint7_radial_122_30" cx="0" cy="0" r="1" gradientUnits="userSpaceOnUse" gradientTransform="translate(164 109.5) rotate(90.9935) scale(86.513 115.351)">
<stop offset="0.215903" stop-color="#345146"/>
<stop offset="1" stop-color="#75B79E" stop-opacity="0"/>
</radialGradient>
<radialGradient id="paint8_radial_122_30" cx="0" cy="0" r="1" gradientUnits="userSpaceOnUse" gradientTransform="translate(164 109.5) rotate(90.9935) scale(86.513 115.351)">
<stop offset="0.215903" stop-color="#345146"/>
<stop offset="1" stop-color="#75B79E" stop-opacity="0"/>
</radialGradient>
<radialGradient id="paint9_radial_122_30" cx="0" cy="0" r="1" gradientUnits="userSpaceOnUse" gradientTransform="translate(60.5 82) rotate(-100.271) scale(75.7133 100.951)">
<stop offset="0.215903" stop-color="#345146"/>
<stop offset="1" stop-color="#75B79E" stop-opacity="0"/>
</radialGradient>
</defs>
</svg>
