<svg width="200" height="200" viewBox="0 0 200 200" fill="none" xmlns="http://www.w3.org/2000/svg">
<path d="M33.9488 174.467C34.7472 183.625 79.7688 190.208 130.902 182.084C131.35 180.367 132.387 178.333 134.162 176.516C66.6875 185.812 43.7187 176.516 32.2021 170.5C33.1743 171.675 33.8206 172.997 33.9488 174.467Z" fill="#BCDECA"/>
<path d="M77.7767 65.2992C76.0059 63.4374 71.1361 60.8309 65.8236 65.2992M107.659 68.8535C112.308 66.9917 122.136 64.9945 124.261 71.9M145.134 75.4544C139.032 85.5923 115.377 87.7908 99.0267 87.1328C85.2142 92.4135 76.8913 85.948 74.4564 82.0552C70.7377 82.0552 67.1518 79.3472 65.8236 77.9932C65.1091 77.1462 64.4966 76.2992 63.978 75.4544C63.1537 74.1117 62.4885 72.7973 61.9668 71.5156M145.134 75.4544C148.45 69.9459 146.585 62.0936 135.55 51.0819C143.076 45.3273 156.269 29.6545 148.831 13C142.412 19.4316 129.042 35.0367 126.917 46.0043C118.727 42.1115 97.9642 36.2554 80.433 43.9733C76.0059 35.3414 62.1303 19.5625 30.6284 29.2483C59.8471 34 64.7917 43.6569 68.5105 49.75C62.4779 53.6638 57.9361 61.6128 61.9668 71.5156M145.134 75.4544C160.533 78.8394 190.401 91.6011 186.683 115.567C185.054 118.466 182.947 121.569 180.658 124.016M146.175 90.6871C162.112 99.2175 164.326 106.089 163.44 108.459C166.01 132.65 174.086 131.04 180.658 124.016M39.9253 117.36C33.402 109.236 47.4718 92.7936 59.8471 82.0552C21.5972 121.112 55.8627 123.717 77.7767 120.137C54.8629 124.064 43.7865 122.169 39.9253 117.36ZM39.9253 117.36C36.4324 120.554 31.3908 126.089 27.3125 132.55M20.6675 155.173C18.6753 156.865 15.6206 160.961 19.3394 163.804M20.6675 155.173C26.2014 156.188 37.402 159.742 37.9332 165.835M20.6675 155.173C19.5586 147.754 22.8619 139.6 27.3125 132.55M19.3394 163.804C11.3707 171.759 3.13638 185.029 33.9488 174.467M19.3394 163.804C22.8661 164.575 29.1451 166.807 32.2021 170.5M33.9488 174.467C34.7472 183.625 79.7688 190.208 130.902 182.084M33.9488 174.467C33.8206 172.997 33.1743 171.675 32.2021 170.5M130.902 182.084C140.42 187.838 160.12 194.473 162.776 174.975M130.902 182.084C131.35 180.367 132.387 178.333 134.162 176.516M162.776 174.975C192.835 159.305 187.222 134.473 180.658 124.016M162.776 174.975C160.91 174.244 159.14 173.647 157.464 173.17M157.464 165.328C153.48 163.635 142.855 162.078 132.23 169.39M180.658 124.016C184.774 134.363 185.898 158.681 157.464 173.17M157.464 173.17C145.249 169.695 137.989 172.599 134.162 176.516M32.2021 170.5C43.7187 176.516 66.6875 185.812 134.162 176.516M61.9668 71.5156C35.832 86.8664 -7.6875 120.564 27.3125 132.55M83.0892 75.4544L85.7455 79.0087L90.3939 77.9932L83.0892 75.4544ZM148.831 120.137C145.134 122.676 138.87 135.147 107.659 127.754C120.151 128.33 145.134 126.859 145.134 116.359L148.831 120.137Z" stroke="#345146" stroke-width="5" stroke-linecap="round" stroke-linejoin="round"/>
</svg>
