<svg width="200" height="200" viewBox="0 0 200 200" fill="none" xmlns="http://www.w3.org/2000/svg">
<path d="M22.7128 133.879C13.1913 111.786 3.30181 165.513 25.1037 145.93C23.9866 145.93 23.0444 137.896 22.7128 133.879Z" fill="#3C8363"/>
<path fill-rule="evenodd" clip-rule="evenodd" d="M109.839 104.254C105.164 104.254 101.598 101.911 100.399 100.739C98.7283 100.562 97.2322 100.168 95.9038 99.6347C95.0047 101.342 92.1277 104.957 87.8123 105.76C83.4969 106.564 86.0142 106.765 87.8123 106.765C94.7553 106.932 109.061 110.179 110.738 121.828C110.511 122.202 110.238 122.581 109.92 122.953C105.805 125.985 89.1461 120.009 80.6199 116.305C69.6815 115.97 49.6028 121.125 56.7952 144.424C58.1322 148.755 59.224 148.967 61.9314 149.493C63.6474 149.826 66.0123 150.286 69.5 152C79.6552 163.566 70.0855 165.366 58.5 164.135C26.5377 149.342 26.585 118.09 31.5145 100.42C32.0529 98.6746 32.5981 97.025 33.1346 95.5C41.5745 79.7239 56.0245 65.9306 79.7209 62.1284C79.4212 62.0163 79.1172 61.9118 78.8096 61.8061C76.5142 61.017 74.0193 60.1594 71.6294 55.5484C56.1199 15.7814 65.4864 26.0303 76.7549 38.3604C79.8569 41.7548 83.1032 45.3068 86.0142 48.0166C88.6857 46.7732 87.1883 40.1419 85.873 34.3169C85.0636 30.7323 84.3232 27.4531 84.6657 25.9229C85.5647 21.9062 96.3533 30.4421 104.894 62.5781C126.831 75.0308 121.227 91.5339 115.683 98.2288C115.5 99.453 115.14 100.444 114.677 101.241C114.157 102.136 113.507 102.787 112.835 103.25C111.747 103.998 110.599 104.254 109.839 104.254Z" fill="#3C8363"/>
<path d="M39.7132 155.471C42.2306 156.274 43.7589 159.822 44.2085 161.496C48.4623 162.577 53.6573 163.621 58.5 164.135C26.5377 149.342 26.585 118.09 31.5145 100.42C25.2934 120.594 19.9906 153.608 39.7132 155.471Z" fill="#345146"/>
<path d="M87.8123 92.2034C88.6292 94.1586 91.2272 97.7583 95.9038 99.6347M86.0142 48.0166C99.4999 60.5696 94.1057 65.5909 94.1057 65.5909M86.0142 48.0166C83.1032 45.3068 79.8569 41.7548 76.7549 38.3604C65.4864 26.0303 56.1199 15.7814 71.6294 55.5484C74.0193 60.1594 76.5142 61.017 78.8096 61.8061C79.1172 61.9118 79.4212 62.0163 79.7209 62.1284M86.0142 48.0166C88.6857 46.7732 87.1883 40.1419 85.873 34.3169C85.0636 30.7323 84.3232 27.4531 84.6657 25.9229C85.5647 21.9062 96.3533 30.4421 104.894 62.5781C126.831 75.0308 121.227 91.5339 115.683 98.2288C115.5 99.453 115.14 100.444 114.677 101.241M85.1152 68.6036C83.6932 64.0652 81.8121 62.9109 79.7209 62.1284M97.7019 79.65C100.998 80.1522 107.412 82.5623 106.692 88.1861M112.835 103.25C111.747 103.998 110.599 104.254 109.839 104.254C105.164 104.254 101.598 101.911 100.399 100.739C98.7283 100.562 97.2322 100.168 95.9038 99.6347M112.835 103.25C111.836 102.413 110.019 100.238 110.738 98.2288M112.835 103.25C113.507 102.787 114.157 102.136 114.677 101.241M95.9038 99.6347C95.0047 101.342 92.1277 104.957 87.8123 105.76C83.4969 106.564 86.0142 106.765 87.8123 106.765C94.7553 106.932 109.061 110.179 110.738 121.828M110.738 121.828C110.511 122.202 110.238 122.581 109.92 122.953M110.738 121.828C110.592 122.292 110.313 122.664 109.92 122.953M80.6199 116.305C69.6815 115.97 49.6028 121.125 56.7952 144.424C58.1322 148.755 59.224 148.967 61.9314 149.493C63.6474 149.826 66.0123 150.286 69.5 152M80.6199 116.305C89.1461 120.009 105.805 125.985 109.92 122.953M80.6199 116.305C96.5049 130.722 106.248 127.251 109.92 122.953M69.5 152C77.8911 152.335 78.7319 157.479 74.7761 165.513M69.5 152C79.6552 163.566 70.0855 165.366 58.5 164.135M74.7761 165.513C69.232 168.024 55.3566 170.735 44.2085 161.496M74.7761 165.513C99.2302 177.564 102.047 167.327 100.399 160.702M74.7761 165.513C82.4501 168.144 98.3182 170.864 100.399 160.702M44.2085 161.496C43.7589 159.822 42.2306 156.274 39.7132 155.471M44.2085 161.496C48.4623 162.577 53.6573 163.621 58.5 164.135M39.7132 155.471C29.8838 158.247 25.8779 150.267 25.1037 145.93M39.7132 155.471C19.9906 153.608 25.2934 120.594 31.5145 100.42M79.7209 62.1284C56.0245 65.9306 41.5745 79.7239 33.1346 95.5M22.7128 133.879C13.1913 111.786 3.30181 165.513 25.1037 145.93M22.7128 133.879C23.337 122.694 26.2169 108.431 33.1346 95.5M22.7128 133.879C23.0444 137.896 23.9866 145.93 25.1037 145.93M69.8313 39.4802C76.1247 45.171 88.8912 57.7577 89.6104 62.5781M158.388 123.335C156.542 120.815 153.908 117.861 150.746 115.18M114.677 101.241C117.562 103.579 124.173 107.771 129.403 107.574M130.967 107.367C138.242 106.728 145.282 110.547 150.746 115.18M130.967 107.367C130.464 107.487 129.94 107.554 129.403 107.574M130.967 107.367C130.446 107.413 129.925 107.481 129.403 107.574M150.746 115.18C157.938 113.044 179.386 115.727 185.5 133C190.145 142.206 192.5 155 181.5 156.475C175.506 158.483 164.052 161.295 161.534 156.475C155.84 159.99 148.498 153.462 138.609 160.492M166.5 138.398C168.748 136.222 173.692 133.678 175.49 140.909M138.609 160.492C161.984 159.487 155.69 193.632 119.279 160.492M138.609 160.492C161.534 169 142 183 119.279 160.492M119.279 160.492C118.343 160.492 109.394 162.185 100.399 160.702M89.1609 156.475C92.4612 158.779 96.4346 160.049 100.399 160.702M129.403 107.574C127.071 107.987 121.675 108.035 117.455 109M33.1346 95.5C32.5981 97.025 32.0529 98.6746 31.5145 100.42M33.1346 95.5C32.5633 96.98 32.0139 98.6305 31.5145 100.42M58.5 164.135C26.5377 149.342 26.585 118.09 31.5145 100.42M117.455 109C115.541 109.438 113.869 110.065 112.835 111C128.556 130.71 134.563 121.828 153.443 127.854C122.997 120.937 116.766 112.403 117.455 109Z" stroke="#345146" stroke-width="4" stroke-linecap="round"/>
</svg>
