<svg width="204" height="200" viewBox="0 0 204 200" fill="none" xmlns="http://www.w3.org/2000/svg">
<path d="M39.1581 170.224C51.8984 180.459 67.7554 177.455 74.0913 174.674C56.3211 178.234 32.3544 166.178 22.5923 159.706C26.0208 163.55 35.1579 171.379 39.1581 170.224Z" fill="#345146"/>
<path d="M90.465 181.874C93.8229 182.613 101.195 183.86 104.295 182.974C94.2383 182.923 80.9385 174.629 75.5456 170.489C75.2125 171.827 74.7242 173.234 74.0913 174.674C75.5205 177.071 85.8297 181.58 90.465 181.874Z" fill="#345146"/>
<path d="M198.586 179.659C199.561 179.254 200.831 177.827 201.514 175.228C200.086 176.224 197.434 177.236 195.158 176.025L196.3 181.269C197.096 180.772 197.861 180.233 198.586 179.659Z" fill="#345146"/>
<path d="M5.19387 154.182C8.91578 160.905 15.471 165.628 22.5923 159.706C19.7549 161.187 12.3029 162.157 5.19387 154.182Z" fill="#345146"/>
<path d="M83.733 73.3191C73.2191 88.827 96.4945 100.458 109.446 104.335C113.626 105.525 121.496 106.738 125.446 104.154C108.875 107.104 75.7333 91.0424 83.733 73.3191Z" fill="#345146"/>
<path d="M96.3647 127.61C108.794 135.833 108.978 135.955 115.787 130.366C109.886 134.043 96.7732 127.641 89.5612 123.148C92.1742 124.838 94.4165 126.321 96.3593 127.607L96.3647 127.61Z" fill="#345146"/>
<path d="M143.159 137.012C143.159 144.101 155.159 146.612 158.587 148.089C151.273 140.114 145.826 135.904 144.874 131.474C143.041 123.51 133.843 118.027 127.514 115.643C125.086 114.851 123.155 114.383 122.017 114.304C121.56 125.169 137.826 133.785 143.159 137.012Z" fill="url(#paint0_radial_103_13)"/>
<path d="M90.5899 14.6108C84.8758 14.6108 77.4475 40.088 88.8757 55.5959C88.6299 56.5155 88.4306 57.678 88.377 58.919C88.2155 62.6603 89.3789 67.1152 94.5898 67.7806C93.6374 61.319 93.3327 47.8419 99.7324 45.6265C106.132 43.4111 96.304 24.0263 90.5899 14.6108Z" fill="url(#paint1_radial_103_13)"/>
<path d="M53.534 151.314C55.062 156.111 56.3097 156.346 59.4038 156.929C61.3648 157.298 64.0675 157.807 68.0533 159.706C75.2997 159.986 77.0176 164.574 75.5456 170.489C80.9385 174.629 94.2383 182.923 104.295 182.974C106.05 184.928 110.828 183.956 113.949 183.32C114.669 183.173 115.301 183.045 115.787 182.974L122.209 183.351L134.644 184.082C139.215 186.297 144.167 185.005 146.072 184.082C158.414 187.626 158.833 183.343 157.5 180.759C156.643 177.714 154.502 173.009 148.865 170.308C147.261 169.54 145.373 168.933 143.151 168.574C138.395 167.805 132.107 168.166 123.787 170.489C122.327 170.896 120.804 171.364 119.216 171.897C136.294 165.259 146.072 150.305 115.787 130.366C108.978 135.955 108.794 135.833 96.3647 127.61L96.3593 127.607C94.4165 126.321 92.1742 124.838 89.5612 123.148C88.9526 122.769 88.386 122.403 87.8693 122.058C86.8734 122.082 85.8055 122.088 84.6845 122.094C71.6721 122.166 51.4989 122.277 53.534 151.314Z" fill="url(#paint2_radial_103_13)"/>
<path fill-rule="evenodd" clip-rule="evenodd" d="M195.158 150.305C189.672 142.329 179.92 135.904 175.73 133.689C172.526 132.358 169.435 132.449 168.828 132.537L168.873 132.581C168.68 132.581 168.678 132.559 168.828 132.537C164.268 128.022 159.128 122.711 155.985 120.397C129.698 106.276 107.556 106.639 103.492 109.701L103.273 109.899C118.962 117.965 120.761 123.167 115.787 130.366C146.072 150.305 136.294 165.259 119.216 171.897C120.804 171.364 122.327 170.896 123.787 170.489C132.107 168.166 138.395 167.805 143.151 168.574C145.373 168.933 147.261 169.54 148.865 170.308C154.502 173.009 156.643 177.714 157.5 180.759L167.906 181.269C171.269 182.795 174.474 183.471 176.873 182.982C182.263 186.465 190.191 185.085 196.3 181.269L195.158 176.025C197.434 177.236 200.086 176.224 201.514 175.228C202.7 170.717 202.118 162.673 195.158 150.305ZM158.587 148.089C155.159 146.612 143.159 144.101 143.159 137.012C137.826 133.785 121.56 125.169 122.017 114.304C123.004 114.252 125.039 114.711 127.514 115.643C133.843 118.027 143.041 123.51 144.874 131.474C145.826 135.904 151.273 140.114 158.587 148.089Z" fill="url(#paint3_radial_103_13)"/>
<path d="M74.0913 174.674C67.7554 177.455 51.8984 180.459 39.1581 170.224C35.1579 171.379 26.0208 163.55 22.5923 159.706M74.0913 174.674C75.5205 177.071 85.8297 181.58 90.465 181.874C93.8229 182.613 101.195 183.86 104.295 182.974M74.0913 174.674C56.3211 178.234 32.3544 166.178 22.5923 159.706M74.0913 174.674C74.7242 173.234 75.2125 171.827 75.5456 170.489M22.5923 159.706C15.471 165.628 8.91578 160.905 5.19387 154.182M22.5923 159.706C19.7549 161.187 12.3029 162.157 5.19387 154.182M155.985 120.397C152.074 112.864 152.281 109.323 152.873 108.493C154.778 106.553 162.016 108.876 175.73 133.689M155.985 120.397C159.128 122.711 164.268 128.022 168.828 132.537M155.985 120.397C129.698 106.276 107.556 106.639 103.492 109.701M159.73 134.243C152.178 125.877 136.468 118.562 127.514 115.643M175.73 133.689C179.92 135.904 189.672 142.329 195.158 150.305C202.118 162.673 202.7 170.717 201.514 175.228M175.73 133.689C172.526 132.358 169.435 132.449 168.828 132.537M122.017 114.304C121.56 125.169 137.826 133.785 143.159 137.012C143.159 144.101 155.159 146.612 158.587 148.089C151.273 140.114 145.826 135.904 144.874 131.474C143.041 123.51 133.843 118.027 127.514 115.643M122.017 114.304C123.004 114.252 125.039 114.711 127.514 115.643M122.017 114.304C123.155 114.383 125.086 114.851 127.514 115.643M171.73 158.605C175.158 158.235 181.901 159.712 181.444 168.574M151.159 161.935C152.183 168.46 154.606 171.49 157.508 174.112C158.224 174.759 158.97 175.381 159.73 176.025C162.328 178.223 165.169 180.027 167.906 181.269M168.873 132.581C168.858 132.567 168.843 132.552 168.828 132.537M168.873 132.581C168.68 132.581 168.678 132.559 168.828 132.537M168.873 132.581L168.828 132.537M157.5 180.759C158.833 183.343 158.414 187.626 146.072 184.082C144.167 185.005 139.215 186.297 134.644 184.082M157.5 180.759L167.906 181.269M157.5 180.759C156.643 177.714 154.502 173.009 148.865 170.308C147.261 169.54 145.373 168.933 143.151 168.574C138.395 167.805 132.107 168.166 123.787 170.489C122.327 170.896 120.804 171.364 119.216 171.897C136.294 165.259 146.072 150.305 115.787 130.366M134.644 184.082L122.209 183.351M134.644 184.082C131.916 184.79 127.302 184.337 122.209 183.351M90.465 160.274C94.6553 165.812 101.789 170.354 100.875 177.443C100.636 179.3 102.428 181.085 103.633 182.285C103.893 182.544 104.116 182.775 104.295 182.974M104.295 182.974C94.2383 182.923 80.9385 174.629 75.5456 170.489M104.295 182.974C106.05 184.928 110.828 183.956 113.949 183.32C114.669 183.173 115.301 183.045 115.787 182.974L122.209 183.351M201.514 175.228C200.831 177.827 199.561 179.254 198.586 179.659C197.861 180.233 197.096 180.772 196.3 181.269M201.514 175.228C200.086 176.224 197.434 177.236 195.158 176.025M192.301 172.459C193.045 174.335 194.058 175.44 195.158 176.025M195.158 176.025L196.3 181.269M196.3 181.269C190.191 185.085 182.263 186.465 176.873 182.982C174.474 183.471 171.269 182.795 167.906 181.269M87.8693 122.058C86.8734 122.082 85.8055 122.088 84.6845 122.094C71.6721 122.166 51.4989 122.277 53.534 151.314C55.062 156.111 56.3097 156.346 59.4038 156.929C61.3648 157.298 64.0675 157.807 68.0533 159.706C75.2997 159.986 77.0176 164.574 75.5456 170.489M87.8693 122.058C88.386 122.403 88.9526 122.769 89.5612 123.148M87.8693 122.058C88.45 122.43 89.0138 122.794 89.5612 123.148M115.787 130.366C108.978 135.955 108.794 135.833 96.3647 127.61L96.3593 127.607C94.4165 126.321 92.1742 124.838 89.5612 123.148M115.787 130.366C120.761 123.167 118.962 117.965 103.273 109.899M115.787 130.366C109.886 134.043 96.7732 127.641 89.5612 123.148M103.264 109.894C103.227 109.929 103.193 109.964 103.161 109.999L103.273 109.899M103.264 109.894C103.267 109.895 103.27 109.897 103.273 109.899M103.264 109.894C103.332 109.829 103.408 109.764 103.492 109.701M109.446 104.335C96.4945 100.458 73.2191 88.827 83.733 73.3191C75.7333 91.0424 108.875 107.104 125.446 104.154M109.446 104.335C113.626 105.525 121.496 106.738 125.446 104.154M109.446 104.335L103.492 109.701M127.514 101.566C129.491 102.119 133.217 101.455 132.303 94.3655C135.16 87.1654 135.274 68.7775 112.875 52.8266M127.514 101.566C128.348 100.089 129.103 96.5809 125.446 94.3655M127.514 101.566C127.124 102.686 126.399 103.531 125.446 104.154M112.875 52.8266C110.589 51.7189 106.018 47.2881 106.018 38.4265C106.018 32.9382 102.073 26.7419 97.8476 21.8109M112.875 52.8266C111.922 50.0574 110.361 42.968 111.732 36.7649C113.103 30.5618 110.018 21.6263 108.304 17.9339C105.904 14.2416 100.454 9.8477 97.8476 21.8109M90.5899 14.6108C84.8758 14.6108 77.4475 40.088 88.8757 55.5959C88.6299 56.5155 88.4306 57.678 88.377 58.919M90.5899 14.6108C96.304 24.0263 106.132 43.4111 99.7324 45.6265C93.3327 47.8419 93.6374 61.319 94.5898 67.7806C89.3789 67.1152 88.2155 62.6603 88.377 58.919M90.5899 14.6108C92.5476 16.2272 95.2505 18.78 97.8476 21.8109M110.589 74.4268C114.018 74.2422 120.075 75.7561 116.875 83.2885M88.377 58.919C85.3053 64.0883 78.3618 73.9838 75.1619 72.2114C35.7347 64.4575 18.5924 85.5039 12.8783 96.0271C7.16424 106.55 2.02157 113.196 8.87851 136.458C0.317393 134.307 0.553707 145.799 5.19387 154.182M103.492 109.701L103.273 109.899" stroke="#345146" stroke-width="3" stroke-linecap="round"/>
<defs>
<radialGradient id="paint0_radial_103_13" cx="0" cy="0" r="1" gradientUnits="userSpaceOnUse" gradientTransform="translate(136.874 73.3192) rotate(-88.8131) scale(136.888 150.268)">
<stop offset="0.339109" stop-color="#345146"/>
<stop offset="0.552027" stop-opacity="0"/>
</radialGradient>
<radialGradient id="paint1_radial_103_13" cx="0" cy="0" r="1" gradientUnits="userSpaceOnUse" gradientTransform="translate(136.874 73.3192) rotate(-88.8131) scale(136.888 150.268)">
<stop offset="0.339109" stop-color="#345146"/>
<stop offset="0.552027" stop-opacity="0"/>
</radialGradient>
<radialGradient id="paint2_radial_103_13" cx="0" cy="0" r="1" gradientUnits="userSpaceOnUse" gradientTransform="translate(69 82) rotate(-27.0797) scale(149.375 174.271)">
<stop offset="0.0782847" stop-color="#345146"/>
<stop offset="0.487626" stop-opacity="0"/>
</radialGradient>
<radialGradient id="paint3_radial_103_13" cx="0" cy="0" r="1" gradientUnits="userSpaceOnUse" gradientTransform="translate(69 82) rotate(-27.0797) scale(149.375 174.271)">
<stop offset="0.0782847" stop-color="#345146"/>
<stop offset="0.487626" stop-opacity="0"/>
</radialGradient>
</defs>
</svg>
