<svg width="200" height="200" viewBox="0 0 200 200" fill="none" xmlns="http://www.w3.org/2000/svg">
<path d="M130.902 191.993C140.42 197.747 160.12 204.382 162.776 184.884C159.398 198.391 147.5 197.838 130.902 191.993Z" fill="#345146"/>
<path d="M162.776 184.884C192.835 169.214 187.222 144.382 180.658 133.925C184.774 144.272 185.898 168.59 157.464 183.079C159.14 183.556 160.91 184.153 162.776 184.884Z" fill="#345146"/>
<path d="M33.9488 184.376C34.7472 193.534 79.7688 200.117 130.902 191.993C131.35 190.276 132.387 188.241 134.162 186.425C66.6875 195.721 43.7187 186.425 32.2021 180.409C33.1743 181.584 33.8206 182.906 33.9488 184.376Z" fill="#345146"/>
<path d="M19.3394 173.713C11.3707 181.668 3.13638 194.938 33.9488 184.376C5.50784 192.907 12.3588 180.822 19.3394 173.713Z" fill="#345146"/>
<path d="M148.831 130.046C145.134 132.585 138.87 145.056 107.659 137.662C120.151 138.239 145.134 136.768 145.134 126.268L148.831 130.046Z" fill="#345146"/>
<path d="M59.3801 94.9089C47.0048 105.647 33.402 119.144 39.9253 127.269C43.7865 132.078 54.8629 133.973 77.7767 130.046C55.8627 133.626 21.1303 133.966 59.3801 94.9089Z" fill="#345146"/>
<path d="M81.5 86.4807C83.8693 89.3596 86.5133 91.9045 88 91.4089C89.2785 90.2014 91.102 88.3703 92.7736 86.4807H81.5Z" fill="#345146"/>
<path d="M127.746 55.9089C153.543 48.3089 153.664 17.7422 150.5 3.4089C124.9 11.4089 121.167 36.4417 122.5 47.9581C124.351 50.1941 126.11 52.8309 127.746 55.9089Z" fill="url(#paint0_radial_101_8)"/>
<path d="M84.8345 43.4089C88.0563 40.4089 90.7 28.5089 75.5 4.9089C75.3897 16.7422 77.1021 41.0089 84.8345 43.4089Z" fill="url(#paint1_radial_101_8)"/>
<path d="M146.175 100.596C162.112 109.126 164.326 115.998 163.44 118.368C166.01 142.559 174.086 140.949 180.658 133.925M59.3801 94.9089C47.0048 105.647 33.402 119.144 39.9253 127.269M59.3801 94.9089C21.1303 133.966 55.8627 133.626 77.7767 130.046C54.8629 133.973 43.7865 132.078 39.9253 127.269M59.3801 94.9089C59.2927 94.6196 59.2135 94.3289 59.1425 94.0373M39.9253 127.269C36.4324 130.463 31.3908 135.998 27.3125 142.458M20.6675 165.081C18.6753 166.774 15.6206 170.87 19.3394 173.713M20.6675 165.081C26.2014 166.097 37.402 169.651 37.9332 175.744M20.6675 165.081C19.5586 157.662 22.8619 149.509 27.3125 142.458M19.3394 173.713C11.3707 181.668 3.13638 194.938 33.9488 184.376M19.3394 173.713C22.8661 174.484 29.1451 176.716 32.2021 180.409M19.3394 173.713C12.3588 180.822 5.50784 192.907 33.9488 184.376M33.9488 184.376C34.7472 193.534 79.7688 200.117 130.902 191.993M33.9488 184.376C33.8206 182.906 33.1743 181.584 32.2021 180.409M130.902 191.993C140.42 197.747 160.12 204.382 162.776 184.884M130.902 191.993C131.35 190.276 132.387 188.241 134.162 186.425M130.902 191.993C147.5 197.838 159.398 198.391 162.776 184.884M162.776 184.884C192.835 169.214 187.222 144.382 180.658 133.925M162.776 184.884C160.91 184.153 159.14 183.556 157.464 183.079M157.464 175.237C153.48 173.544 142.855 171.987 132.23 179.299M180.658 133.925C182.947 131.478 185.054 128.375 186.683 125.476C190.401 101.51 160.533 88.7483 145.134 85.3633L129 58.4089C128.591 57.5451 128.173 56.712 127.746 55.9089M180.658 133.925C184.774 144.272 185.898 168.59 157.464 183.079M157.464 183.079C145.249 179.604 137.989 182.508 134.162 186.425M32.2021 180.409C43.7187 186.425 66.6875 195.721 134.162 186.425M61.9668 81.4245C35.832 96.7753 -7.6875 130.473 27.3125 142.458M61.9668 81.4245L69.5 71.9089L72.5 61.9089M61.9668 81.4245C58.8845 85.0475 58.0755 89.6519 59.1425 94.0373M72.5 61.9089C74.8333 64.0756 78.4 69.9089 74 75.9089M72.5 61.9089C73.5184 55.1197 78.2818 48.1577 84.8345 43.4089M139.5 96.9089C130.7 112.509 110.5 111.076 101.5 108.409C91.1 117.209 84.8333 112.076 83 108.409C70.0538 109.984 61.1796 102.41 59.1425 94.0373M77.7767 81.4245C78.6929 82.8178 80.0446 84.7123 81.5 86.4807M88 91.4089C86.5133 91.9045 83.8693 89.3596 81.5 86.4807M88 91.4089C89.2785 90.2014 91.102 88.3703 92.7736 86.4807M88 91.4089C88.6451 92.5117 89.0267 93.8799 88.9444 95.2337M88 91.4089C87.9566 92.5271 88.2142 93.8867 88.9444 95.2337M97 79.9089C97 81.2861 95.0244 83.9364 92.7736 86.4807M81.5 86.4807H92.7736M75.5 100.596C85.4088 102.147 88.7314 98.7389 88.9444 95.2337M110.5 100.596C96.8946 102.777 91.0166 99.056 88.9444 95.2337M106 74.4089C105.5 66.5756 107.4 53.5089 119 63.9089M84.8345 43.4089C88.0563 40.4089 90.7 28.5089 75.5 4.9089M84.8345 43.4089C77.1021 41.0089 75.3897 16.7422 75.5 4.9089M84.8345 43.4089C88.8646 40.4883 93.5714 38.4049 98.5 37.7137M75.5 4.9089C83.3333 7.11213 98.9 16.7576 98.5 37.7137M98.5 37.7137C102.766 37.1156 107.197 37.5603 111.5 39.4077M111.5 39.4077C115.333 25.7414 128.5 -0.591105 150.5 3.4089M111.5 39.4077C115.339 41.056 119.076 43.8209 122.5 47.9581M150.5 3.4089C153.664 17.7422 153.543 48.3089 127.746 55.9089M150.5 3.4089C124.9 11.4089 121.167 36.4417 122.5 47.9581M127.746 55.9089C126.11 52.8309 124.351 50.1941 122.5 47.9581M148.831 130.046C145.134 132.585 138.87 145.056 107.659 137.662C120.151 138.239 145.134 136.768 145.134 126.268L148.831 130.046Z" stroke="#345146" stroke-width="3" stroke-linecap="round" stroke-linejoin="round"/>
<defs>
<radialGradient id="paint0_radial_101_8" cx="0" cy="0" r="1" gradientUnits="userSpaceOnUse" gradientTransform="translate(105.5 44.5) rotate(-77.3864) scale(73.2683 97.2741)">
<stop offset="0.262138" stop-color="#345146"/>
<stop offset="0.982553" stop-opacity="0"/>
</radialGradient>
<radialGradient id="paint1_radial_101_8" cx="0" cy="0" r="1" gradientUnits="userSpaceOnUse" gradientTransform="translate(105.5 44.5) rotate(-77.3864) scale(73.2683 97.2741)">
<stop offset="0.262138" stop-color="#345146"/>
<stop offset="0.982553" stop-opacity="0"/>
</radialGradient>
</defs>
</svg>
