<svg width="129" height="243" viewBox="0 0 129 243" fill="none" xmlns="http://www.w3.org/2000/svg">
<path d="M35.0663 176.355V193.05C35.0663 196.2 34.3013 198.9 32.7713 201.15C31.2713 203.4 29.4113 205.095 27.1913 206.235C24.9713 207.345 22.7963 207.9 20.6663 207.9C17.9963 207.9 15.5963 207.315 13.4663 206.145C11.3663 204.945 9.71625 203.31 8.51625 201.24C7.34625 199.14 6.76125 196.785 6.76125 194.175V175.005L2.08125 173.43L2.98125 171.63H16.6613V173.025L12.3863 176.355V192.015C12.3863 195.825 13.3163 198.795 15.1763 200.925C17.0663 203.055 19.9163 204.12 23.7263 204.12C25.1363 204.12 26.5163 203.67 27.8663 202.77C29.2463 201.84 30.3713 200.49 31.2413 198.72C32.1413 196.95 32.5913 194.865 32.5913 192.465V175.77L27.9113 173.43L28.8113 171.63H39.3413V173.025L35.0663 176.355ZM54.8109 183.15C56.8709 183.15 58.6909 183.65 60.2709 184.65C61.8709 185.63 63.1009 187 63.9609 188.76C64.8409 190.52 65.2809 192.51 65.2809 194.73C65.2809 197.01 64.6109 199.12 63.2709 201.06C61.9509 202.98 60.3009 204.51 58.3209 205.65C56.3609 206.77 54.4809 207.33 52.6809 207.33C51.7609 207.33 50.8309 207.28 49.8909 207.18C48.3509 207.08 47.1609 207.03 46.3209 207.03H42.5109V206.1L45.3309 203.88V185.64L42.2109 184.62L42.8109 183.42H46.2909C48.1909 183.42 50.0409 183.36 51.8409 183.24C53.2009 183.16 54.1909 183.12 54.8109 183.12V183.15ZM53.5209 205.11C54.9609 205.11 56.2709 204.73 57.4509 203.97C58.6309 203.19 59.5509 202.12 60.2109 200.76C60.8909 199.38 61.2309 197.84 61.2309 196.14C61.2309 194.1 60.9109 192.25 60.2709 190.59C59.6309 188.91 58.6509 187.57 57.3309 186.57C56.0309 185.57 54.4109 185.07 52.4709 185.07C51.2509 185.07 50.1209 185.43 49.0809 186.15V204.36C50.3009 204.86 51.7809 205.11 53.5209 205.11ZM87.1711 207H69.1711V206.07L71.9911 203.85V185.67L68.8711 184.62L69.4711 183.42H86.8711L88.4911 182.88V189.78L87.5911 190.08L84.0211 184.77H75.7411V194.28H80.4511L82.6411 190.44H83.5711V199.56L82.3711 200.16L80.4811 195.63H75.7411V205.65H83.9011L87.8911 199.74L88.7911 200.04V207.54L87.1711 207ZM114.305 170.73C115.895 170.73 117.725 170.955 119.795 171.405C121.895 171.855 123.425 172.335 124.385 172.845V181.575H122.675C119.915 176.865 116.255 174.51 111.695 174.51C109.715 174.51 107.9 175.095 106.25 176.265C104.63 177.405 103.355 179.01 102.425 181.08C101.495 183.12 101.03 185.415 101.03 187.965C101.03 190.905 101.48 193.59 102.38 196.02C103.31 198.45 104.705 200.4 106.565 201.87C108.455 203.34 110.78 204.075 113.54 204.075C116.09 204.075 119.75 202.155 124.52 198.315L125.87 200.475L117.59 206.91C116.48 207.3 115.4 207.555 114.35 207.675C113.33 207.825 112.22 207.9 111.02 207.9C107.87 207.9 105.08 207.135 102.65 205.605C100.22 204.075 98.3297 201.975 96.9797 199.305C95.6297 196.605 94.9547 193.545 94.9547 190.125C94.9547 186.615 95.9747 183.375 98.0147 180.405C100.055 177.405 102.59 175.05 105.62 173.34C108.65 171.6 111.545 170.73 114.305 170.73Z" fill="black"/>
<path d="M14.7305 216.454V220.59C14.7305 221.36 14.5472 222.02 14.1805 222.57C13.8138 223.12 13.3592 223.534 12.8165 223.813C12.2738 224.084 11.7458 224.22 11.2325 224.22C10.5872 224.22 10.0115 224.077 9.50551 223.791C8.99951 223.498 8.60351 223.098 8.31751 222.592C8.03151 222.079 7.88851 221.503 7.88851 220.865V216.146L6.75551 215.739L6.95351 215.354H10.1875V215.64L9.14251 216.454V220.304C9.14251 221.272 9.37718 222.024 9.84651 222.559C10.3158 223.094 11.0272 223.362 11.9805 223.362C12.3325 223.362 12.6772 223.248 13.0145 223.021C13.3592 222.786 13.6415 222.445 13.8615 221.998C14.0815 221.551 14.1915 221.023 14.1915 220.414V216.333L13.0695 215.739L13.2675 215.354H15.7755V215.64L14.7305 216.454ZM24.1623 216.443V224H23.6343L18.3873 217.246V223.032L19.4653 223.615L19.2673 224H16.8253V223.714L17.8593 222.911V216.344L16.7263 215.739L16.9133 215.354H18.5193L23.6343 221.943V216.322L22.5673 215.739L22.7653 215.354H25.2073V215.64L24.1623 216.443ZM29.6199 224.022H26.3859V223.736L27.4199 222.933V216.157L26.2869 215.75L26.4739 215.365H29.7079V215.651L28.6629 216.454V223.208L29.8069 223.637L29.6199 224.022ZM38.8899 216.432L35.7219 223.648L34.7319 224.209L31.4979 216.432L30.3979 215.739L30.5959 215.354H33.7859V215.64L32.7959 216.454L35.5019 222.966L38.3949 216.366L36.4149 215.739L36.6019 215.354H39.9019L39.8909 215.64L38.8899 216.432ZM47.1318 224H40.5978V223.714L41.6318 222.9V216.135L40.4988 215.739L40.6858 215.354H47.0218L47.5718 215.156V217.631L47.2968 217.708L45.9988 215.783H42.8748V219.369H44.6898L45.4928 217.928H45.7788V221.294L45.3938 221.492L44.7118 219.798H42.8748V223.571H45.9548L47.4068 221.415L47.6818 221.503V224.198L47.1318 224ZM57.455 224.033H55.475L52.989 220.106L52.472 219.721L52.615 219.435H53.253C53.7737 219.435 54.1844 219.31 54.485 219.061C54.7857 218.804 54.936 218.452 54.936 218.005C54.936 217.411 54.771 216.916 54.441 216.52C54.111 216.124 53.627 215.926 52.989 215.926C52.5637 215.926 52.175 216.051 51.823 216.3V223.23L52.967 223.637L52.78 224.022H49.546V223.736L50.58 222.933V216.146L49.447 215.75L49.634 215.365H50.8C51.4674 215.365 52.131 215.343 52.791 215.299C53.2604 215.27 53.6124 215.255 53.847 215.255C54.3237 215.255 54.749 215.354 55.123 215.552C55.497 215.75 55.7867 216.018 55.992 216.355C56.1974 216.685 56.3 217.052 56.3 217.455C56.3 217.822 56.1827 218.174 55.948 218.511C55.7134 218.848 55.409 219.142 55.035 219.391C54.6684 219.633 54.2797 219.816 53.869 219.941L54.562 220.183L56.322 222.966L57.642 223.648L57.455 224.033ZM63.2716 222.02C63.2716 221.793 63.18 221.58 62.9966 221.382C62.8133 221.177 62.586 220.997 62.3146 220.843C62.0433 220.682 61.6656 220.476 61.1816 220.227C60.617 219.941 60.1623 219.695 59.8176 219.49C59.4803 219.285 59.1906 219.043 58.9486 218.764C58.714 218.478 58.5966 218.163 58.5966 217.818C58.5966 217.451 58.747 217.059 59.0476 216.641C59.3483 216.216 59.715 215.86 60.1476 215.574C60.5876 215.281 60.991 215.134 61.3576 215.134C61.805 215.134 62.322 215.189 62.9086 215.299C63.5026 215.409 63.9353 215.526 64.2066 215.651V217.73H63.9096C63.543 217.129 63.1396 216.667 62.6996 216.344C62.2596 216.014 61.7976 215.849 61.3136 215.849C60.8663 215.849 60.5143 215.988 60.2576 216.267C60.001 216.538 59.8726 216.894 59.8726 217.334C59.8726 217.576 59.968 217.803 60.1586 218.016C60.3493 218.221 60.584 218.408 60.8626 218.577C61.1486 218.746 61.5336 218.951 62.0176 219.193C62.5676 219.472 63.0076 219.714 63.3376 219.919C63.675 220.117 63.9573 220.355 64.1846 220.634C64.4193 220.905 64.5366 221.21 64.5366 221.547C64.5366 221.914 64.3753 222.31 64.0526 222.735C63.73 223.153 63.334 223.509 62.8646 223.802C62.4026 224.088 61.981 224.231 61.5996 224.231C61.1303 224.231 60.573 224.176 59.9276 224.066C59.2823 223.956 58.8203 223.839 58.5416 223.714V221.635H58.8386C59.2273 222.236 59.6636 222.702 60.1476 223.032C60.639 223.355 61.1413 223.516 61.6546 223.516C61.9773 223.516 62.2596 223.446 62.5016 223.307C62.751 223.168 62.9416 222.984 63.0736 222.757C63.2056 222.522 63.2716 222.277 63.2716 222.02ZM69.2908 224.022H66.0568V223.736L67.0908 222.933V216.157L65.9578 215.75L66.1448 215.365H69.3788V215.651L68.3338 216.454V223.208L69.4778 223.637L69.2908 224.022ZM75.2168 215.255C75.9575 215.255 76.6138 215.438 77.1858 215.805C77.7578 216.164 78.1978 216.667 78.5058 217.312C78.8212 217.957 78.9788 218.687 78.9788 219.501C78.9788 220.337 78.7368 221.111 78.2528 221.822C77.7762 222.526 77.1822 223.087 76.4708 223.505C75.7595 223.916 75.0812 224.121 74.4358 224.121C74.0912 224.121 73.7465 224.103 73.4018 224.066C72.8298 224.029 72.3898 224.011 72.0818 224.011H70.7618V223.725L71.7958 222.911V216.113L70.6628 215.739L70.8498 215.354H72.0708C72.7602 215.354 73.4422 215.332 74.1168 215.288C74.6155 215.259 74.9822 215.244 75.2168 215.244V215.255ZM74.7548 223.34C75.2975 223.34 75.7888 223.197 76.2288 222.911C76.6688 222.618 77.0135 222.218 77.2628 221.712C77.5195 221.206 77.6478 220.638 77.6478 220.007C77.6478 219.252 77.5268 218.562 77.2848 217.939C77.0502 217.316 76.6872 216.821 76.1958 216.454C75.7045 216.08 75.0958 215.893 74.3698 215.893C73.8858 215.893 73.4422 216.036 73.0388 216.322V223.054C73.5155 223.252 74.0838 223.351 74.7438 223.351L74.7548 223.34ZM89.0418 224H85.8518V223.714L86.8418 222.9L85.9618 220.777H82.2218L81.2538 222.988L83.2338 223.615L83.0468 224H79.7468V223.714L80.7478 222.922L83.9158 215.706L84.9058 215.145L88.1398 222.922L89.2398 223.615L89.0418 224ZM84.1468 216.388L82.4088 220.348H85.7858L84.1468 216.388ZM94.4024 215.255C95.1431 215.255 95.7994 215.438 96.3714 215.805C96.9434 216.164 97.3834 216.667 97.6914 217.312C98.0067 217.957 98.1644 218.687 98.1644 219.501C98.1644 220.337 97.9224 221.111 97.4384 221.822C96.9617 222.526 96.3677 223.087 95.6564 223.505C94.9451 223.916 94.2667 224.121 93.6214 224.121C93.2767 224.121 92.9321 224.103 92.5874 224.066C92.0154 224.029 91.5754 224.011 91.2674 224.011H89.9474V223.725L90.9814 222.911V216.113L89.8484 215.739L90.0354 215.354H91.2564C91.9457 215.354 92.6277 215.332 93.3024 215.288C93.8011 215.259 94.1677 215.244 94.4024 215.244V215.255ZM93.9404 223.34C94.4831 223.34 94.9744 223.197 95.4144 222.911C95.8544 222.618 96.1991 222.218 96.4484 221.712C96.7051 221.206 96.8334 220.638 96.8334 220.007C96.8334 219.252 96.7124 218.562 96.4704 217.939C96.2357 217.316 95.8727 216.821 95.3814 216.454C94.8901 216.08 94.2814 215.893 93.5554 215.893C93.0714 215.893 92.6277 216.036 92.2244 216.322V223.054C92.7011 223.252 93.2694 223.351 93.9294 223.351L93.9404 223.34ZM107.239 215.255C107.98 215.255 108.636 215.438 109.208 215.805C109.78 216.164 110.22 216.667 110.528 217.312C110.844 217.957 111.001 218.687 111.001 219.501C111.001 220.337 110.759 221.111 110.275 221.822C109.799 222.526 109.205 223.087 108.493 223.505C107.782 223.916 107.104 224.121 106.458 224.121C106.114 224.121 105.769 224.103 105.424 224.066C104.852 224.029 104.412 224.011 104.104 224.011H102.784V223.725L103.818 222.911V216.113L102.685 215.739L102.872 215.354H104.093C104.783 215.354 105.465 215.332 106.139 215.288C106.638 215.259 107.005 215.244 107.239 215.244V215.255ZM106.777 223.34C107.32 223.34 107.811 223.197 108.251 222.911C108.691 222.618 109.036 222.218 109.285 221.712C109.542 221.206 109.67 220.638 109.67 220.007C109.67 219.252 109.549 218.562 109.307 217.939C109.073 217.316 108.71 216.821 108.218 216.454C107.727 216.08 107.118 215.893 106.392 215.893C105.908 215.893 105.465 216.036 105.061 216.322V223.054C105.538 223.252 106.106 223.351 106.766 223.351L106.777 223.34ZM119.029 224H112.495V223.714L113.529 222.9V216.135L112.396 215.739L112.583 215.354H118.919L119.469 215.156V217.631L119.194 217.708L117.896 215.783H114.772V219.369H116.587L117.39 217.928H117.676V221.294L117.291 221.492L116.609 219.798H114.772V223.571H117.852L119.304 221.415L119.579 221.503V224.198L119.029 224ZM13.8061 227.134C14.1801 227.134 14.6165 227.189 15.1151 227.299C15.6211 227.409 15.9878 227.526 16.2151 227.651V229.741H15.9181C15.2288 228.575 14.3121 227.992 13.1681 227.992C12.6621 227.992 12.2038 228.139 11.7931 228.432C11.3825 228.718 11.0598 229.118 10.8251 229.631C10.5905 230.137 10.4731 230.709 10.4731 231.347C10.4731 232.08 10.5868 232.755 10.8141 233.371C11.0415 233.98 11.3898 234.467 11.8591 234.834C12.3358 235.201 12.9225 235.384 13.6191 235.384C14.2278 235.384 15.1115 234.893 16.2701 233.91L16.5781 234.405L14.5541 235.978C14.2901 236.073 14.0335 236.136 13.7841 236.165C13.5421 236.202 13.2818 236.22 13.0031 236.22C12.2478 236.22 11.5768 236.033 10.9901 235.659C10.4035 235.285 9.94513 234.772 9.61513 234.119C9.29246 233.459 9.13113 232.711 9.13113 231.875C9.13113 231.017 9.37679 230.225 9.86813 229.499C10.3595 228.766 10.9718 228.19 11.7051 227.772C12.4385 227.347 13.1388 227.134 13.8061 227.134ZM25.8003 228.454V232.59C25.8003 233.36 25.617 234.02 25.2503 234.57C24.8837 235.12 24.429 235.534 23.8863 235.813C23.3437 236.084 22.8157 236.22 22.3023 236.22C21.657 236.22 21.0813 236.077 20.5753 235.791C20.0693 235.498 19.6733 235.098 19.3873 234.592C19.1013 234.079 18.9583 233.503 18.9583 232.865V228.146L17.8253 227.739L18.0233 227.354H21.2573V227.64L20.2123 228.454V232.304C20.2123 233.272 20.447 234.024 20.9163 234.559C21.3857 235.094 22.097 235.362 23.0503 235.362C23.4023 235.362 23.747 235.248 24.0843 235.021C24.429 234.786 24.7113 234.445 24.9313 233.998C25.1513 233.551 25.2613 233.023 25.2613 232.414V228.333L24.1393 227.739L24.3373 227.354H26.8453V227.64L25.8003 228.454ZM35.2321 228.443V236H34.7041L29.4571 229.246V235.032L30.5351 235.615L30.3371 236H27.8951V235.714L28.9291 234.911V228.344L27.7961 227.739L27.9831 227.354H29.5891L34.7041 233.943V228.322L33.6371 227.739L33.8351 227.354H36.2771V227.64L35.2321 228.443ZM41.9107 227.255C42.6514 227.255 43.3077 227.438 43.8797 227.805C44.4517 228.164 44.8917 228.667 45.1997 229.312C45.515 229.957 45.6727 230.687 45.6727 231.501C45.6727 232.337 45.4307 233.111 44.9467 233.822C44.47 234.526 43.876 235.087 43.1647 235.505C42.4534 235.916 41.775 236.121 41.1297 236.121C40.785 236.121 40.4404 236.103 40.0957 236.066C39.5237 236.029 39.0837 236.011 38.7757 236.011H37.4557V235.725L38.4897 234.911V228.113L37.3567 227.739L37.5437 227.354H38.7647C39.454 227.354 40.136 227.332 40.8107 227.288C41.3094 227.259 41.676 227.244 41.9107 227.244V227.255ZM41.4487 235.34C41.9914 235.34 42.4827 235.197 42.9227 234.911C43.3627 234.618 43.7074 234.218 43.9567 233.712C44.2134 233.206 44.3417 232.638 44.3417 232.007C44.3417 231.252 44.2207 230.562 43.9787 229.939C43.744 229.316 43.381 228.821 42.8897 228.454C42.3984 228.08 41.7897 227.893 41.0637 227.893C40.5797 227.893 40.136 228.036 39.7327 228.322V235.054C40.2094 235.252 40.7777 235.351 41.4377 235.351L41.4487 235.34ZM50.4006 236.022H47.1666V235.736L48.2006 234.933V228.157L47.0676 227.75L47.2546 227.365H50.4886V227.651L49.4436 228.454V235.208L50.5876 235.637L50.4006 236.022ZM59.2087 228.443V236H58.6807L53.4337 229.246V235.032L54.5117 235.615L54.3137 236H51.8717V235.714L52.9057 234.911V228.344L51.7727 227.739L51.9597 227.354H53.5657L58.6807 233.943V228.322L57.6137 227.739L57.8117 227.354H60.2537V227.64L59.2087 228.443ZM70.0013 236H66.8113V235.714L67.8013 234.9L66.9213 232.777H63.1813L62.2133 234.988L64.1933 235.615L64.0063 236H60.7063V235.714L61.7073 234.922L64.8753 227.706L65.8653 227.145L69.0993 234.922L70.1993 235.615L70.0013 236ZM65.1063 228.388L63.3683 232.348H66.7453L65.1063 228.388ZM81.1259 236.033H77.8919V235.747L78.9259 234.933V228.685L75.9559 236.022H75.4169L72.4689 228.597V235.032L73.6129 235.637L73.4259 236.022H70.9069V235.736L71.9409 234.922V228.399L70.8079 227.75L70.9949 227.365H73.2389L76.0329 234.438L78.8379 227.365H81.2249V227.651L80.1799 228.465V235.208L81.3239 235.648L81.1259 236.033ZM91.1849 236H87.9949V235.714L88.9849 234.9L88.1049 232.777H84.3649L83.3969 234.988L85.3769 235.615L85.1899 236H81.8899V235.714L82.8909 234.922L86.0589 227.706L87.0489 227.145L90.2829 234.922L91.3829 235.615L91.1849 236ZM86.2899 228.388L84.5519 232.348H87.9289L86.2899 228.388ZM99.9995 236.033H98.0195L95.5335 232.106L95.0165 231.721L95.1595 231.435H95.7975C96.3181 231.435 96.7288 231.31 97.0295 231.061C97.3301 230.804 97.4805 230.452 97.4805 230.005C97.4805 229.411 97.3155 228.916 96.9855 228.52C96.6555 228.124 96.1715 227.926 95.5335 227.926C95.1081 227.926 94.7195 228.051 94.3675 228.3V235.23L95.5115 235.637L95.3245 236.022H92.0905V235.736L93.1245 234.933V228.146L91.9915 227.75L92.1785 227.365H93.3445C94.0118 227.365 94.6755 227.343 95.3355 227.299C95.8048 227.27 96.1568 227.255 96.3915 227.255C96.8681 227.255 97.2935 227.354 97.6675 227.552C98.0415 227.75 98.3311 228.018 98.5365 228.355C98.7418 228.685 98.8445 229.052 98.8445 229.455C98.8445 229.822 98.7271 230.174 98.4925 230.511C98.2578 230.848 97.9535 231.142 97.5795 231.391C97.2128 231.633 96.8241 231.816 96.4135 231.941L97.1065 232.183L98.8665 234.966L100.186 235.648L99.9995 236.033ZM105.684 227.134C106.058 227.134 106.494 227.189 106.993 227.299C107.499 227.409 107.866 227.526 108.093 227.651V229.741H107.796C107.107 228.575 106.19 227.992 105.046 227.992C104.54 227.992 104.082 228.139 103.671 228.432C103.26 228.718 102.938 229.118 102.703 229.631C102.468 230.137 102.351 230.709 102.351 231.347C102.351 232.08 102.465 232.755 102.692 233.371C102.919 233.98 103.268 234.467 103.737 234.834C104.214 235.201 104.8 235.384 105.497 235.384C106.106 235.384 106.989 234.893 108.148 233.91L108.456 234.405L106.432 235.978C106.168 236.073 105.911 236.136 105.662 236.165C105.42 236.202 105.16 236.22 104.881 236.22C104.126 236.22 103.455 236.033 102.868 235.659C102.281 235.285 101.823 234.772 101.493 234.119C101.17 233.459 101.009 232.711 101.009 231.875C101.009 231.017 101.255 230.225 101.746 229.499C102.237 228.766 102.85 228.19 103.583 227.772C104.316 227.347 105.017 227.134 105.684 227.134ZM118.459 236H115.269V235.714L116.259 234.9L115.379 232.777H111.639L110.671 234.988L112.651 235.615L112.464 236H109.164V235.714L110.165 234.922L113.333 227.706L114.323 227.145L117.557 234.922L118.657 235.615L118.459 236ZM113.564 228.388L111.826 232.348H115.203L113.564 228.388Z" fill="black"/>
<path d="M81.3601 147.418L83.1995 152.165L82.1959 152.554L80.3564 147.807L81.3601 147.418ZM86.1563 145.559L87.9957 150.306L87.1288 150.642L83.9059 148.455L83.8711 148.468L85.0289 151.456L84.0252 151.845L82.1858 147.098L83.0666 146.756L86.2724 148.948L86.3141 148.932L85.1573 145.946L86.1563 145.559ZM91.6003 145.02C91.5093 144.84 91.3735 144.726 91.1927 144.677C91.012 144.628 90.8011 144.65 90.5601 144.743C90.3963 144.807 90.2669 144.883 90.1721 144.973C90.0767 145.062 90.0144 145.158 89.9853 145.262C89.9577 145.365 89.9636 145.467 90.0032 145.569C90.033 145.656 90.0795 145.723 90.1427 145.771C90.2074 145.819 90.2835 145.853 90.371 145.872C90.4579 145.89 90.5535 145.898 90.6579 145.897C90.7616 145.894 90.8698 145.884 90.9823 145.867L91.4483 145.804C91.6733 145.77 91.8873 145.758 92.0903 145.768C92.2933 145.779 92.48 145.816 92.6505 145.879C92.8209 145.943 92.9705 146.038 93.0993 146.164C93.2297 146.289 93.334 146.451 93.4121 146.648C93.5232 146.939 93.5466 147.219 93.4824 147.49C93.4192 147.758 93.2728 148.004 93.0433 148.228C92.8147 148.449 92.5072 148.635 92.1209 148.785C91.7377 148.933 91.3812 149.004 91.0513 148.997C90.7231 148.989 90.4347 148.901 90.1863 148.732C89.9389 148.561 89.7452 148.307 89.6051 147.968L90.5763 147.592C90.6488 147.747 90.7459 147.862 90.8675 147.938C90.9901 148.011 91.1299 148.048 91.2869 148.05C91.4447 148.049 91.6102 148.015 91.7833 147.948C91.9533 147.882 92.0913 147.8 92.1973 147.702C92.3048 147.604 92.3763 147.497 92.4117 147.382C92.4471 147.267 92.4426 147.152 92.3983 147.038C92.357 146.931 92.2906 146.854 92.1991 146.806C92.1092 146.757 91.994 146.731 91.8538 146.726C91.715 146.722 91.551 146.732 91.3618 146.757L90.7946 146.828C90.3567 146.885 89.9817 146.856 89.6697 146.738C89.3576 146.621 89.1344 146.387 89.0001 146.035C88.8872 145.749 88.8663 145.468 88.9376 145.193C89.0105 144.918 89.1595 144.667 89.3848 144.441C89.61 144.216 89.8957 144.035 90.2419 143.901C90.5942 143.765 90.925 143.706 91.2344 143.725C91.5454 143.743 91.8159 143.831 92.0459 143.989C92.2759 144.147 92.448 144.366 92.5622 144.647L91.6003 145.02ZM98.0551 143.678C98.2557 144.196 98.3283 144.674 98.2727 145.114C98.2187 145.552 98.0604 145.932 97.7978 146.255C97.5362 146.575 97.1959 146.816 96.7772 146.978C96.3553 147.141 95.9396 147.192 95.5301 147.131C95.1205 147.069 94.748 146.894 94.4126 146.607C94.0772 146.319 93.8095 145.917 93.6095 145.401C93.4089 144.883 93.3356 144.405 93.3896 143.967C93.4436 143.528 93.6014 143.149 93.8631 142.829C94.1241 142.507 94.4656 142.265 94.8874 142.101C95.3062 141.939 95.7204 141.889 96.1299 141.95C96.5404 142.01 96.9134 142.183 97.2488 142.471C97.5858 142.758 97.8546 143.161 98.0551 143.678ZM97.0376 144.073C96.9077 143.737 96.7479 143.474 96.5582 143.283C96.3701 143.091 96.1626 142.97 95.9357 142.921C95.7088 142.872 95.474 142.895 95.2314 142.989C94.9888 143.083 94.8002 143.225 94.6655 143.414C94.5308 143.603 94.4579 143.832 94.4466 144.101C94.437 144.369 94.4971 144.671 94.627 145.007C94.757 145.342 94.916 145.606 95.1041 145.798C95.2938 145.989 95.502 146.109 95.7289 146.158C95.9558 146.207 96.1906 146.184 96.4332 146.09C96.6758 145.996 96.8644 145.855 96.9991 145.666C97.1338 145.477 97.206 145.248 97.2157 144.979C97.2269 144.71 97.1675 144.408 97.0376 144.073ZM99.7183 145.764L97.8789 141.017L98.8825 140.628L100.401 144.547L102.436 143.759L102.757 144.586L99.7183 145.764ZM103.422 144.329L101.582 139.582L104.781 138.342L105.102 139.17L102.907 140.02L103.345 141.151L105.375 140.365L105.696 141.192L103.665 141.979L104.105 143.112L106.309 142.258L106.63 143.086L103.422 144.329ZM105.579 138.033L106.817 137.553L109.36 140.236L109.415 140.215L109.487 136.519L110.724 136.039L112.564 140.786L111.59 141.163L110.393 138.074L110.354 138.089L110.314 141.631L109.651 141.888L107.229 139.286L107.19 139.301L108.392 142.403L107.418 142.78L105.579 138.033Z" fill="black"/>
<path d="M53.2591 159.749L46.2156 156.61V164.974C46.9982 163.233 49.5026 159.749 53.2591 159.749Z" fill="black"/>
<path d="M85.1913 156.233L76.7391 159.749C81.247 159.749 82.8418 163.293 83.7809 165.035L85.1913 156.233Z" fill="black"/>
<path d="M57.9548 145.496L18.9809 128.869L13.8156 142.171M57.9548 145.496L54.5113 155.948M57.9548 145.496H73.4522M13.8156 142.171L22.7374 158.323L26.9635 148.03M13.8156 142.171L26.9635 148.03M53.2591 159.749L54.5113 155.948M53.2591 159.749L46.2156 156.61M53.2591 159.749C49.5026 159.749 46.9982 163.233 46.2156 164.974M54.5113 155.948H75.8M75.8 155.948L73.4522 145.496M75.8 155.948L76.7391 159.749M73.4522 145.496L112.896 128.869L119 142.171M76.7391 159.749L103.504 148.616M76.7391 159.749C81.247 159.749 82.8418 163.293 83.7809 165.035M76.7391 159.749L85.1913 156.233L83.7809 165.035M119 142.171L103.504 148.616M119 142.171L109.609 159.749L103.504 148.616M26.9635 148.03L46.2156 156.61M46.2156 156.61V164.974M46.2156 164.974C52.7895 167.983 71.0087 172.256 83.7809 165.035M11 76.5881C11 164.975 119.939 169.62 118.061 76.5881C116.183 -16.4439 10.9999 -10.5669 11 76.5881ZM26.9635 76.5881C29.3113 7.67976 102.564 9.10493 102.564 76.5881C102.564 144.071 24.6156 145.496 26.9635 76.5881ZM39.1721 76.5881C39.6417 43.7854 88.8537 41.9302 89.8852 76.5881C90.9168 111.246 38.7026 109.391 39.1721 76.5881ZM54.1982 64.7339L53.2591 85.162H57.9548V94.6635L63.12 90.3878V87.5374H67.8156V85.162L71.1026 83.2617L74.8592 85.162H79.5548V77.5608L72.5113 76.5881V68.5344L67.8156 66.6342H63.12H60.7721L57.9548 61.8834V64.7339H54.1982ZM36.8243 51.4318L46.6852 53.3321L48.5634 41.9303L57.9548 47.6312L64.5287 38.6047L70.1635 47.6312L80.9635 41.9303L82.3722 53.3321L92.7026 51.4318L90.8244 63.3086L100.216 65.684L94.1113 74.7104L100.216 82.3116L92.7026 86.1122L96.9287 96.5638L85.6591 97.989L87.5374 109.866L76.7374 107.966L72.5113 116.517L63.5895 108.441L56.0765 116.517L51.3808 105.59L41.0504 108.441V97.989H32.1287L34.0069 87.5374L28.3721 82.3116L35.4156 74.7104L29.7808 66.6342L37.7635 63.3086L36.8243 51.4318Z" stroke="black" stroke-width="2" stroke-linejoin="round"/>
<path d="M18.8488 139.654L20.8088 134.955L23.9747 136.276L23.6331 137.095L21.4605 136.189L20.9935 137.308L23.0032 138.147L22.6615 138.966L20.6518 138.127L20.1838 139.249L22.3656 140.159L22.0239 140.978L18.8488 139.654ZM25.696 136.994L25.9755 138.991L26.0122 139.006L27.6322 137.802L28.7541 138.27L26.3403 140.021L26.8263 142.982L25.6837 142.505L25.3891 140.5L25.3524 140.484L23.7199 141.686L22.582 141.211L25.0326 139.475L24.5695 136.524L25.696 136.994ZM33.7801 140.366L34.7735 140.781L33.5006 143.832C33.3577 144.175 33.1509 144.44 32.88 144.629C32.6107 144.818 32.3 144.924 31.9479 144.946C31.5964 144.966 31.2265 144.895 30.838 144.733C30.448 144.571 30.1366 144.357 29.9038 144.093C29.6716 143.827 29.5281 143.532 29.4731 143.208C29.4182 142.883 29.4622 142.55 29.6051 142.207L30.878 139.156L31.8713 139.57L30.6339 142.537C30.5593 142.715 30.5319 142.891 30.5519 143.063C30.5733 143.235 30.6394 143.391 30.75 143.53C30.8605 143.67 31.0114 143.779 31.2026 143.859C31.3953 143.94 31.5794 143.97 31.7548 143.949C31.9318 143.93 32.0883 143.867 32.2243 143.76C32.3619 143.654 32.468 143.512 32.5427 143.333L33.7801 140.366ZM35.5908 141.122L36.8159 141.633L36.7929 145.329L36.848 145.352L39.4588 142.735L40.6839 143.246L38.7239 147.945L37.7604 147.543L39.0361 144.485L38.9971 144.468L36.515 146.996L35.8589 146.723L35.9139 143.169L35.8749 143.153L34.5944 146.222L33.6308 145.82L35.5908 141.122ZM39.5424 148.286L41.5023 143.588L43.3836 144.372C43.7292 144.517 43.9962 144.688 44.1844 144.887C44.3726 145.086 44.4868 145.3 44.5271 145.531C44.5681 145.76 44.5394 145.992 44.4412 146.228C44.3646 146.411 44.2606 146.557 44.1291 146.666C43.9983 146.773 43.8501 146.844 43.6847 146.879C43.5213 146.913 43.3502 146.915 43.1712 146.883L43.1521 146.929C43.3279 147.011 43.4743 147.132 43.5914 147.29C43.71 147.449 43.7831 147.633 43.8108 147.842C43.8392 148.05 43.8052 148.269 43.7088 148.5C43.6049 148.749 43.4501 148.946 43.2445 149.09C43.0411 149.233 42.7958 149.311 42.5084 149.324C42.2211 149.337 41.9016 149.27 41.5498 149.124L39.5424 148.286ZM40.8745 147.888L41.6844 148.226C41.9612 148.342 42.1851 148.373 42.3561 148.321C42.5277 148.267 42.6505 148.151 42.7245 147.973C42.7787 147.843 42.7952 147.716 42.774 147.59C42.7528 147.464 42.6958 147.349 42.6032 147.244C42.5121 147.14 42.387 147.054 42.2279 146.988L41.3951 146.64L40.8745 147.888ZM41.6756 145.968L42.412 146.275C42.5481 146.332 42.6788 146.359 42.8041 146.356C42.9316 146.351 43.0444 146.317 43.1426 146.254C43.2423 146.192 43.318 146.099 43.3697 145.975C43.4405 145.805 43.4372 145.643 43.3598 145.488C43.2839 145.335 43.1358 145.212 42.9155 145.12L42.1608 144.805L41.6756 145.968ZM43.8136 150.068L45.7735 145.369L47.6272 146.143C47.9821 146.291 48.2584 146.481 48.4563 146.712C48.6563 146.943 48.774 147.201 48.8092 147.487C48.8465 147.772 48.8004 148.069 48.6709 148.38C48.5408 148.692 48.3615 148.932 48.1331 149.101C47.9054 149.268 47.6389 149.358 47.3337 149.371C47.0301 149.384 46.6978 149.316 46.3368 149.165L45.0957 148.647L45.4287 147.849L46.5093 148.3C46.6989 148.379 46.8673 148.419 47.0144 148.419C47.1615 148.419 47.2874 148.38 47.3919 148.302C47.498 148.224 47.5833 148.108 47.6477 147.953C47.7128 147.797 47.7363 147.653 47.7183 147.519C47.7017 147.387 47.6415 147.266 47.5375 147.158C47.4357 147.049 47.2892 146.955 47.098 146.875L46.4281 146.596L44.8069 150.482L43.8136 150.068ZM47.2429 148.988L47.5187 151.614L46.4221 151.156L46.1715 148.541L47.2429 148.988ZM48.8631 152.174L47.7986 151.73L51.3805 147.708L52.6607 148.242L52.3204 153.617L51.2559 153.172L51.5911 149.057L51.5544 149.041L48.8631 152.174ZM49.5669 150.3L52.0814 151.349L51.7579 152.124L49.2435 151.075L49.5669 150.3Z" fill="black"/>
<path d="M27.4298 109.812L26.326 108.306C26.5013 108.137 26.6337 107.955 26.7233 107.76C26.8152 107.564 26.8664 107.36 26.877 107.148C26.8876 106.937 26.8579 106.724 26.7876 106.508C26.7191 106.294 26.6109 106.087 26.4631 105.885C26.1959 105.521 25.8724 105.269 25.4925 105.131C25.1149 104.991 24.6991 104.971 24.245 105.073C23.7932 105.173 23.3224 105.4 22.8326 105.755C22.3291 106.121 21.9606 106.502 21.7273 106.9C21.4956 107.3 21.3915 107.698 21.415 108.095C21.4385 108.492 21.5805 108.869 21.8409 109.224C21.9871 109.423 22.1487 109.588 22.326 109.719C22.5049 109.853 22.6936 109.949 22.8922 110.009C23.0931 110.066 23.2991 110.085 23.5101 110.066C23.7228 110.048 23.936 109.988 24.1497 109.886L25.2467 111.396C24.8939 111.592 24.5098 111.722 24.0944 111.785C23.6829 111.848 23.263 111.835 22.8346 111.746C22.4102 111.657 21.9972 111.483 21.5954 111.223C21.1977 110.965 20.8333 110.609 20.5023 110.158C20.0419 109.53 19.7729 108.866 19.6951 108.164C19.6189 107.465 19.746 106.776 20.0763 106.097C20.4083 105.421 20.9583 104.804 21.7263 104.247C22.4965 103.688 23.2577 103.357 24.0097 103.253C24.7617 103.15 25.4606 103.243 26.1063 103.532C26.7543 103.82 27.3052 104.274 27.7588 104.892C28.0579 105.3 28.2776 105.72 28.418 106.151C28.5601 106.585 28.6199 107.017 28.5975 107.448C28.5773 107.877 28.4707 108.291 28.2778 108.691C28.0865 109.093 27.8038 109.466 27.4298 109.812Z" fill="black"/>
<path d="M33.6132 114.152L34.7045 115.64L30.1175 118.969C29.6024 119.343 29.0619 119.547 28.4958 119.583C27.9314 119.62 27.3807 119.498 26.8437 119.218C26.309 118.935 25.8282 118.503 25.4015 117.921C24.973 117.337 24.7053 116.749 24.5982 116.156C24.4934 115.562 24.5451 115.003 24.7533 114.48C24.9615 113.957 25.3231 113.508 25.8381 113.134L30.4252 109.806L31.5164 111.293L27.057 114.53C26.788 114.725 26.5917 114.957 26.4681 115.226C26.3463 115.496 26.3045 115.783 26.3429 116.085C26.3813 116.387 26.5055 116.681 26.7155 116.968C26.9272 117.256 27.1709 117.464 27.4468 117.59C27.7243 117.719 28.0105 117.766 28.3054 117.731C28.602 117.698 28.8848 117.584 29.1538 117.389L33.6132 114.152Z" fill="black"/>
<path d="M40.384 123.174L33.3206 128.299L32.3781 127.014L34.5782 120.726L34.5404 120.675L30.0948 123.901L29.0035 122.413L36.0668 117.287L37.0245 118.593L34.8102 124.854L34.8556 124.916L39.2978 121.693L40.384 123.174Z" fill="black"/>
<path d="M40.1055 132.038L37.4062 130.526L41.7047 122.931L44.4263 124.455C45.1923 124.884 45.7656 125.405 46.1462 126.019C46.5283 126.63 46.7078 127.302 46.6848 128.035C46.6643 128.769 46.4309 129.53 45.9845 130.319C45.5368 131.11 45.002 131.706 44.3803 132.107C43.761 132.509 43.0864 132.706 42.3566 132.698C41.6293 132.691 40.8789 132.471 40.1055 132.038ZM39.7948 130.052L40.8173 130.624C41.2932 130.891 41.7411 131.031 42.161 131.045C42.5847 131.057 42.9791 130.931 43.3442 130.667C43.7132 130.402 44.0579 129.986 44.3783 129.419C44.6959 128.858 44.8725 128.353 44.9079 127.904C44.9458 127.456 44.8499 127.058 44.6204 126.708C44.3908 126.358 44.0381 126.05 43.5621 125.783L42.5359 125.208L39.7948 130.052Z" fill="black"/>
<path d="M50.723 128.638L46.822 136.445L45.168 135.627L49.0689 127.82L50.723 128.638Z" fill="black"/>
<path d="M59.4832 131.548L57.1986 139.971L55.6594 139.558L53.4301 133.272L53.3684 133.256L51.9305 138.557L50.1484 138.079L52.4329 129.656L53.9969 130.076L56.1985 136.349L56.2725 136.369L57.7093 131.072L59.4832 131.548Z" fill="black"/>
<path d="M63.0253 140.212L61.048 140.211L64.0765 131.485L66.4544 131.486L69.4471 140.215L67.4699 140.214L65.2959 133.48L65.2278 133.48L63.0253 140.212ZM62.9079 136.782L67.5783 136.784L67.5757 138.224L62.9053 138.222L62.9079 136.782Z" fill="black"/>
<path d="M70.3316 131.081L72.5228 130.467L76.4348 135.461L76.5333 135.433L77.2498 129.143L79.441 128.529L81.819 136.926L80.0956 137.409L78.5478 131.943L78.478 131.963L77.8395 137.997L76.6659 138.325L72.9492 133.49L72.8794 133.509L74.433 138.995L72.7096 139.478L70.3316 131.081Z" fill="black"/>
<path d="M86.9412 134.903L85.2447 135.919L83.3118 126.904L85.352 125.683L92.4511 131.605L90.7547 132.62L85.3936 127.983L85.3351 128.018L86.9412 134.903ZM85.0594 132.032L89.0666 129.633L89.8122 130.865L85.805 133.264L85.0594 132.032Z" fill="black"/>
<path d="M94.3363 128.984L88.5968 122.409L91.2025 120.158C91.7013 119.727 92.2045 119.449 92.7121 119.322C93.2201 119.191 93.7076 119.207 94.1746 119.37C94.6419 119.53 95.0651 119.827 95.4444 120.261C95.8255 120.698 96.0588 121.155 96.1443 121.633C96.2279 122.109 96.163 122.586 95.9497 123.063C95.7385 123.538 95.3793 123.995 94.8719 124.433L93.1273 125.94L92.152 124.823L93.6709 123.511C93.9375 123.28 94.1272 123.053 94.2399 122.828C94.3527 122.603 94.3886 122.38 94.3475 122.16C94.3086 121.939 94.1948 121.72 94.0061 121.504C93.8155 121.285 93.6108 121.139 93.3919 121.066C93.1751 120.99 92.9439 120.991 92.6982 121.068C92.4527 121.141 92.1957 121.294 91.9269 121.526L90.9853 122.339L95.7326 127.777L94.3363 128.984ZM95.2911 122.911L99.5444 124.485L98.0029 125.816L93.7851 124.212L95.2911 122.911Z" fill="black"/>
<path d="M102.464 112.203L101.245 113.616C101.039 113.486 100.83 113.399 100.619 113.357C100.406 113.313 100.194 113.31 99.9852 113.348C99.776 113.386 99.5739 113.464 99.3789 113.581C99.1857 113.697 99.0074 113.849 98.8442 114.038C98.5491 114.38 98.3775 114.751 98.3293 115.151C98.2789 115.548 98.3555 115.955 98.559 116.372C98.7604 116.786 99.0912 117.19 99.5515 117.583C100.025 117.987 100.483 118.256 100.925 118.391C101.37 118.524 101.784 118.534 102.167 118.42C102.55 118.306 102.885 118.083 103.173 117.749C103.334 117.562 103.459 117.368 103.546 117.166C103.636 116.962 103.687 116.757 103.699 116.551C103.71 116.344 103.681 116.14 103.613 115.94C103.547 115.738 103.44 115.545 103.29 115.362L104.516 113.954C104.789 114.251 105.004 114.593 105.161 114.981C105.318 115.365 105.401 115.774 105.412 116.209C105.423 116.641 105.348 117.08 105.186 117.529C105.024 117.973 104.76 118.407 104.395 118.831C103.886 119.421 103.298 119.833 102.629 120.069C101.962 120.303 101.259 120.338 100.519 120.173C99.7813 120.007 99.0515 119.616 98.3297 119C97.6058 118.382 97.1068 117.721 96.8328 117.016C96.5587 116.312 96.4892 115.614 96.6242 114.922C96.757 114.229 97.0739 113.592 97.5749 113.011C97.9051 112.628 98.2653 112.319 98.6554 112.084C99.0473 111.847 99.4565 111.691 99.8829 111.614C100.307 111.535 100.737 111.543 101.173 111.639C101.61 111.732 102.04 111.92 102.464 112.203Z" fill="black"/>
<path d="M108.709 112.57L107.855 114.353L101.27 107.899L102.297 105.754L111.483 106.778L110.629 108.561L103.6 107.65L103.571 107.711L108.709 112.57ZM105.556 111.213L107.573 107L108.875 107.617L106.858 111.829L105.556 111.213Z" fill="black"/>
<path d="M21.4847 43.5651L22.2552 41.8885L27.4145 44.2343C27.9938 44.4977 28.4372 44.8663 28.7448 45.3401C29.0535 45.8112 29.2161 46.3486 29.2326 46.9522C29.2466 47.5546 29.1029 48.1836 28.8016 48.8393C28.4991 49.4976 28.1143 50.0186 27.6473 50.4022C27.1776 50.7848 26.6627 51.0141 26.1025 51.0901C25.5422 51.1662 24.9725 51.0726 24.3932 50.8092L19.2339 48.4633L20.0043 46.7867L25.0201 49.0673C25.3227 49.2049 25.6219 49.2613 25.9177 49.2367C26.2148 49.2095 26.4863 49.1051 26.7322 48.9236C26.9782 48.7421 27.1754 48.49 27.3236 48.1673C27.4731 47.8421 27.5358 47.5288 27.5116 47.2276C27.4886 46.9238 27.3897 46.6526 27.2149 46.4139C27.0412 46.1727 26.8031 45.9833 26.5005 45.8457L21.4847 43.5651Z" fill="black"/>
<path d="M27.8336 33.8257L35.1052 38.6516L34.2174 39.9752L27.5257 40.0911L27.4901 40.1442L32.0668 43.1816L31.039 44.7139L23.7674 39.888L24.6694 38.5432L31.3409 38.4498L31.3837 38.3861L26.8105 35.351L27.8336 33.8257Z" fill="black"/>
<path d="M31.6455 29.6966L38.256 35.3945L37.044 36.7858L30.4335 31.088L31.6455 29.6966Z" fill="black"/>
<path d="M34.8233 25.9545L40.7608 29.6026L40.8224 29.55L38.0954 23.1585L39.6505 21.8297L43.0674 30.3893L41.2597 31.934L33.265 27.2861L34.8233 25.9545Z" fill="black"/>
<path d="M45.5493 27.3967L41.066 19.9091L46.1254 16.9116L46.9069 18.2168L43.435 20.2738L44.5033 22.058L47.7149 20.1552L48.4964 21.4605L45.2848 23.3632L46.3553 25.151L49.8419 23.0854L50.6234 24.3906L45.5493 27.3967Z" fill="black"/>
<path d="M50.8965 23.334L48.5841 14.9186L51.9067 14.0152C52.5427 13.8423 53.1167 13.8084 53.6288 13.9136C54.1428 14.0152 54.5745 14.2408 54.924 14.5903C55.2754 14.9364 55.5275 15.3875 55.6803 15.9436C55.8339 16.5024 55.8453 17.016 55.7147 17.4842C55.5834 17.9498 55.3182 18.3516 54.9191 18.6898C54.5227 19.0272 54.0011 19.2838 53.3541 19.4597L51.1295 20.0646L50.7365 18.6346L52.6733 18.108C53.0133 18.0156 53.2828 17.8923 53.482 17.738C53.6812 17.5837 53.8101 17.3986 53.8685 17.1825C53.9297 16.9656 53.9223 16.7189 53.8463 16.4422C53.7695 16.1628 53.6486 15.9425 53.4835 15.7813C53.3212 15.6193 53.1127 15.52 52.858 15.4832C52.6054 15.443 52.3077 15.4695 51.9651 15.5626L50.7643 15.8891L52.677 22.8499L50.8965 23.334ZM54.3921 18.2678L57.5375 21.5283L55.5719 22.0628L52.4718 18.7899L54.3921 18.2678Z" fill="black"/>
<path d="M61.8783 15.0706C61.7864 14.7376 61.5968 14.499 61.3096 14.3549C61.0225 14.2107 60.6605 14.1759 60.2236 14.2503C59.9267 14.3009 59.6833 14.3857 59.4933 14.5045C59.3029 14.6205 59.1656 14.7607 59.0815 14.9249C59.0001 15.0886 58.9754 15.2628 59.0072 15.4476C59.0281 15.6025 59.0835 15.7314 59.1733 15.8343C59.2658 15.9367 59.3824 16.0191 59.5229 16.0816C59.6629 16.1413 59.8208 16.1879 59.9967 16.2213C60.172 16.252 60.3571 16.2723 60.552 16.2823L61.3568 16.3353C61.7465 16.3553 62.1103 16.4086 62.448 16.4951C62.7858 16.5816 63.0871 16.7075 63.352 16.8728C63.6168 17.038 63.8361 17.2484 64.0099 17.5041C64.1865 17.7593 64.307 18.0659 64.3716 18.4238C64.4594 18.9506 64.4036 19.4298 64.2041 19.8615C64.007 20.29 63.6775 20.6531 63.2156 20.9508C62.7561 21.2453 62.1763 21.4522 61.4761 21.5715C60.7816 21.6899 60.1584 21.6866 59.6064 21.5617C59.0573 21.4363 58.6025 21.1896 58.2422 20.8216C57.8842 20.4503 57.6449 19.9565 57.5243 19.3402L59.2845 19.0402C59.3538 19.3252 59.4778 19.5519 59.6568 19.7202C59.838 19.8853 60.0603 19.9958 60.3236 20.0518C60.5892 20.1045 60.8789 20.1041 61.1925 20.0507C61.5006 19.9982 61.7603 19.9078 61.9717 19.7795C62.1859 19.6508 62.3423 19.4959 62.4408 19.3148C62.5394 19.1338 62.5708 18.9397 62.5351 18.7325C62.5018 18.5393 62.4164 18.3867 62.2789 18.2747C62.1443 18.1622 61.9597 18.0784 61.7254 18.0232C61.4938 17.9676 61.2147 17.9287 60.888 17.9066L59.9107 17.8311C59.155 17.7784 58.5348 17.6002 58.0501 17.2967C57.5654 16.9931 57.2697 16.5233 57.163 15.8873C57.0705 15.3671 57.1308 14.8885 57.3438 14.4516C57.5596 14.0142 57.8951 13.6443 58.3504 13.342C58.8057 13.0396 59.347 12.8349 59.9743 12.728C60.6128 12.6191 61.1889 12.6333 61.7026 12.7706C62.2191 12.9073 62.6439 13.1476 62.977 13.4914C63.3101 13.8352 63.525 14.2625 63.6216 14.7735L61.8783 15.0706Z" fill="black"/>
<path d="M67.9117 12.2808L67.9864 21.0078L66.1413 21.0234L66.0666 12.2964L67.9117 12.2808Z" fill="black"/>
<path d="M72.9066 22.4173L69.866 21.8462L71.4937 13.2721L74.5594 13.8479C75.4221 14.01 76.1322 14.3211 76.6897 14.7814C77.2477 15.2388 77.6336 15.8186 77.8473 16.5207C78.0638 17.2233 78.0875 18.0198 77.9185 18.9101C77.749 19.8033 77.4343 20.5391 76.9746 21.1176C76.5177 21.6966 75.9426 22.0987 75.2492 22.324C74.5586 22.5499 73.7777 22.581 72.9066 22.4173ZM71.9743 20.6336L73.1261 20.85C73.6622 20.9507 74.1311 20.9405 74.5329 20.8194C74.938 20.696 75.2708 20.4507 75.5314 20.0834C75.7953 19.7138 75.9879 19.2095 76.1092 18.5703C76.2295 17.9367 76.2343 17.4014 76.1235 16.9644C76.0155 16.5278 75.7967 16.1803 75.4669 15.9218C75.1372 15.6633 74.7043 15.4837 74.1682 15.3831L73.0123 15.1659L71.9743 20.6336Z" fill="black"/>
<path d="M88.2175 29.3766L85.6855 27.599L90.7358 20.4814L93.2887 22.2737C94.0072 22.7781 94.5245 23.3548 94.8408 24.0039C95.1588 24.6505 95.269 25.3371 95.1716 26.0636C95.0764 26.7917 94.7666 27.5253 94.2422 28.2644C93.7162 29.0058 93.1234 29.5442 92.4639 29.8796C91.8068 30.2166 91.1156 30.3439 90.3902 30.2616C89.6672 30.1809 88.943 29.8859 88.2175 29.3766ZM88.1105 27.3698L89.0696 28.0432C89.516 28.3566 89.9474 28.5415 90.3638 28.5978C90.7842 28.6534 91.1894 28.5682 91.5796 28.3423C91.9738 28.1157 92.3591 27.7372 92.7356 27.2066C93.1087 26.6806 93.3358 26.1962 93.4167 25.7532C93.5 25.3118 93.4453 24.9054 93.2525 24.534C93.0597 24.1626 92.7401 23.8202 92.2936 23.5068L91.331 22.831L88.1105 27.3698Z" fill="black"/>
<path d="M78.6204 24.2518L76.8783 23.3164L83.6953 17.0711L85.7902 18.196L84.2782 27.2898L82.5362 26.3544L83.8216 19.4025L83.7615 19.3702L78.6204 24.2518ZM80.1477 21.1783L84.2625 23.3877L83.5755 24.6537L79.4607 22.4442L80.1477 21.1783Z" fill="black"/>
<path d="M96.3317 38.6107L94.5517 36.0803L101.715 31.0947L103.509 33.646C104.015 34.364 104.306 35.0819 104.384 35.7996C104.464 36.5158 104.335 37.1991 103.997 37.8496C103.661 38.5024 103.121 39.0877 102.377 39.6054C101.631 40.1247 100.891 40.4305 100.157 40.5226C99.4241 40.617 98.7306 40.5026 98.0761 40.1794C97.4231 39.8586 96.8417 39.3357 96.3317 38.6107ZM96.911 36.6863L97.5852 37.6448C97.899 38.0909 98.2423 38.411 98.6149 38.6051C98.9916 38.7998 99.4017 38.857 99.8454 38.7766C100.293 38.697 100.784 38.4713 101.318 38.0997C101.847 37.7313 102.225 37.3524 102.451 36.963C102.679 36.576 102.765 36.175 102.71 35.7603C102.654 35.3455 102.469 34.9151 102.155 34.469L101.479 33.507L96.911 36.6863Z" fill="black"/>
<path d="M99.4687 42.5024L107.541 39.1848L109.797 44.6156L108.389 45.1939L106.841 41.4671L104.918 42.2576L106.35 45.705L104.943 46.2833L103.511 42.8359L101.584 43.6281L103.138 47.3706L101.731 47.9489L99.4687 42.5024Z" fill="black"/>
</svg>
