<svg width="32" height="42" viewBox="0 0 32 42" fill="none" xmlns="http://www.w3.org/2000/svg">
<g filter="url(#filter0_i_5_3893)">
<path d="M28.8761 19.4918C28.9465 19.4238 29.0024 19.3561 29.0459 19.2893C29.3361 18.8436 29.072 18.44 28.8761 18.277L28.4417 18.4795L28.8761 19.4918Z" fill="black"/>
<path d="M22.4321 15.0601C23.0113 14.4976 24.4353 14.6731 24.8214 16.2748C24.8214 16.9947 22.0218 16.9047 22.4321 15.0601Z" fill="#910805"/>
<path fill-rule="evenodd" clip-rule="evenodd" d="M7.951 13.1479C11.0236 13.8725 14.6766 14.4002 16.2535 14.2277C15.4812 14.7676 15.2881 15.2542 15.2881 15.43C13.9147 16.1683 13.1095 17.3514 12.8263 18.0362C3.55782 20.0868 0.80519 33.3915 5.44095 37.3087C7.61311 30.6948 17.5809 35.4865 13.3331 40.0982C22.6493 41.358 23.5664 35.0591 21.8769 31.2347C26.004 27.5004 24.0008 22.4388 23.5905 21.8089C23.2623 21.305 23.5986 21.044 23.8077 20.9765C24.345 20.9626 24.8166 20.9394 25.2317 20.9082C25.4758 20.8898 25.7005 20.8687 25.9075 20.8451C26.2292 20.8083 26.5084 20.7656 26.7522 20.7177C27.9736 20.4778 28.3062 20.1101 28.6435 19.7371C28.7177 19.6552 28.792 19.573 28.8761 19.4918L28.4417 18.4795L28.8761 18.277L28.5249 17.7146L26.9936 15.2625C26.8391 14.0207 25.0789 12.7804 24.218 12.3155C20.5109 11.2357 19.5037 8.97111 19.4634 7.97378C18.9807 3.76252 15.2237 1.5699 13.4055 1C12.9711 2.99465 12.8022 7.36639 15.6018 8.89612C18.4015 10.4259 19.021 11.6032 18.9807 12.0006C17.3975 12.8464 13.2366 10.0884 11.354 8.60367C10.4852 7.98878 8.91216 7.4296 7.951 7.63634C6.38222 7.97378 3.30902 8.69366 1.38626 8.78364C0.935742 8.99361 0.644785 9.26528 1.8931 9.63849C3.17226 10.0209 4.01699 10.5608 4.35488 11.1682C4.38706 11.4382 5.94779 12.6755 7.951 13.1479ZM22.4321 15.0601C23.0113 14.4976 24.4353 14.6731 24.8214 16.2748C24.8214 16.9947 22.0218 16.9047 22.4321 15.0601Z" fill="#D6B894"/>
<path d="M5.44095 37.3087C4.4955 39.7649 8.844 42.4378 13.3331 40.0982C17.5809 35.4865 7.61311 30.6948 5.44095 37.3087Z" fill="#D6B894"/>
</g>
<path d="M18.9807 12.0006C17.3975 12.8464 13.2366 10.0884 11.354 8.60368C10.4852 7.98878 8.91216 7.4296 7.951 7.63634C6.38222 7.97378 3.30902 8.69366 1.38626 8.78364C0.935742 8.99361 0.644785 9.26528 1.8931 9.63849C3.17226 10.0209 4.01699 10.5608 4.35488 11.1682C4.38706 11.4382 5.94779 12.6755 7.951 13.1479C11.0236 13.8725 14.6766 14.4002 16.2535 14.2277C15.4812 14.7676 15.2881 15.2542 15.2881 15.43M18.9807 12.0006C19.021 11.6032 18.4015 10.4259 15.6018 8.89612C12.8022 7.36639 12.9711 2.99465 13.4055 1C15.2237 1.5699 18.9807 3.76252 19.4634 7.97378C19.5037 8.97111 20.5109 11.2357 24.218 12.3155C25.0789 12.7804 26.8391 14.0207 26.9936 15.2625L28.5249 17.7146M18.9807 12.0006C19.1336 11.8956 19.6034 11.7486 20.2599 12.0006M28.8761 18.277L28.4417 18.4795L28.8761 19.4918M28.8761 18.277C29.072 18.44 29.3361 18.8436 29.0459 19.2893M28.8761 18.277L28.5249 17.7146M28.8761 19.4918C28.792 19.5729 28.7177 19.6552 28.6435 19.7371M28.8761 19.4918C28.9465 19.4238 29.0024 19.3561 29.0459 19.2893M23.8077 20.9765C23.5986 21.044 23.2623 21.305 23.5905 21.8089C24.0008 22.4388 26.004 27.5004 21.8769 31.2347M23.8077 20.9765C22.8182 21.194 20.1682 21.3095 17.4844 20.0317M23.8077 20.9765C24.345 20.9626 24.8166 20.9394 25.2317 20.9082M21.8769 31.2347C23.5664 35.0591 22.6493 41.358 13.3331 40.0982M21.8769 31.2347C21.7884 30.5673 20.7329 28.6792 17.2189 26.4656C13.7048 24.2519 13.9365 22.8437 14.4916 22.4163M13.3331 40.0982C8.844 42.4378 4.4955 39.7649 5.44095 37.3087M13.3331 40.0982C17.5809 35.4865 7.61311 30.6948 5.44095 37.3087M5.44095 37.3087C0.80519 33.3915 3.55782 20.0868 12.8263 18.0362M16.2535 17.8046C15.027 17.7147 13.8842 17.8021 12.8263 18.0362M12.8263 18.0362C13.1095 17.3514 13.9147 16.1683 15.2881 15.43M17.4844 14.7901C16.6351 14.857 15.9044 15.0987 15.2881 15.43M28.6435 19.7371C28.3062 20.1101 27.9736 20.4778 26.7522 20.7177M28.6435 19.7371L31 22.2588M25.2317 20.9082C25.0386 21.4934 24.7297 22.6997 25.0386 22.8437M25.2317 20.9082C25.4758 20.8898 25.7005 20.8687 25.9075 20.8451M4.35488 9.63849C5.52945 9.13608 8.39992 8.59468 10.4852 10.4484C12.5705 12.302 14.556 12.8554 15.2881 12.9004C14.21 13.0879 11.5182 13.2334 9.37497 12.3155M25.9075 20.8451V21.6964M25.9075 20.8451C26.2292 20.8083 26.5084 20.7656 26.7522 20.7177M26.7522 20.7177L27.0901 22.4838M28.5249 17.7146H30.8311M29.0459 19.2893L30.8311 20.2791M22.4321 15.0601C23.0113 14.4976 24.4353 14.6731 24.8214 16.2748C24.8214 16.9947 22.0218 16.9047 22.4321 15.0601Z" stroke="black" stroke-width="0.5"/>
<path d="M23.6629 15.51C23.6629 15.1725 24.1939 15.1725 24.1939 15.51C24.1939 15.8474 23.6629 15.8474 23.6629 15.51Z" fill="#D9D9D9"/>
<path d="M24.1215 16.1174C24.1215 15.9374 24.387 15.9374 24.387 16.1174C24.387 16.2973 24.1215 16.2973 24.1215 16.1174Z" fill="#D9D9D9"/>
<path d="M23.6629 15.51C23.6629 15.1725 24.1939 15.1725 24.1939 15.51C24.1939 15.8474 23.6629 15.8474 23.6629 15.51Z" stroke="#EBD2D2" stroke-width="0.5"/>
<path d="M24.1215 16.1174C24.1215 15.9374 24.387 15.9374 24.387 16.1174C24.387 16.2973 24.1215 16.2973 24.1215 16.1174Z" stroke="#EBD2D2" stroke-width="0.5"/>
<defs>
<filter id="filter0_i_5_3893" x="0.749705" y="0.679676" width="30.4329" height="40.5703" filterUnits="userSpaceOnUse" color-interpolation-filters="sRGB">
<feFlood flood-opacity="0" result="BackgroundImageFix"/>
<feBlend mode="normal" in="SourceGraphic" in2="BackgroundImageFix" result="shape"/>
<feColorMatrix in="SourceAlpha" type="matrix" values="0 0 0 0 0 0 0 0 0 0 0 0 0 0 0 0 0 0 127 0" result="hardAlpha"/>
<feOffset/>
<feGaussianBlur stdDeviation="2.5"/>
<feComposite in2="hardAlpha" operator="arithmetic" k2="-1" k3="1"/>
<feColorMatrix type="matrix" values="0 0 0 0 0 0 0 0 0 0 0 0 0 0 0 0 0 0 1 0"/>
<feBlend mode="normal" in2="shape" result="effect1_innerShadow_5_3893"/>
</filter>
</defs>
</svg>
